<svg width="340" height="158" viewBox="0 0 340 158" fill="none" xmlns="http://www.w3.org/2000/svg">
<path d="M217.714 38.2418C217.531 41.2708 216.708 43.9542 215.244 46.292C213.781 48.6095 211.738 50.429 209.115 51.7504C206.513 53.0717 203.382 53.7324 199.723 53.7324C195.881 53.7324 192.578 52.8684 189.813 51.1405C187.068 49.3922 184.954 46.9222 183.47 43.7306C181.986 40.5186 181.244 36.7069 181.244 32.2955V29.5816C181.244 25.1702 182.006 21.3585 183.531 18.1466C185.076 14.9346 187.231 12.4545 189.996 10.7062C192.781 8.95787 196.044 8.08373 199.784 8.08373C203.525 8.08373 206.676 8.77491 209.237 10.1573C211.819 11.5193 213.811 13.3896 215.214 15.7681C216.637 18.1466 217.491 20.8605 217.775 23.9098H208.2C208.017 21.3077 207.306 19.3358 206.066 17.9941C204.846 16.6321 202.752 15.951 199.784 15.951C196.816 15.951 194.6 17.0386 193.137 19.2138C191.693 21.389 190.972 24.8246 190.972 29.5206V32.2955C190.972 36.8899 191.632 40.3051 192.954 42.5413C194.295 44.7775 196.552 45.8956 199.723 45.8956C202.508 45.8956 204.561 45.2654 205.883 44.005C207.204 42.7243 207.967 40.8032 208.17 38.2418H217.714ZM222.229 53.1226V8.72409H236.042C240.047 8.72409 243.574 9.61857 246.623 11.4075C249.693 13.1965 252.092 15.6868 253.82 18.8784C255.548 22.0701 256.412 25.7699 256.412 29.978V31.8686C256.412 36.097 255.548 39.8071 253.82 42.9987C252.112 46.1904 249.723 48.6807 246.654 50.4696C243.584 52.2382 240.027 53.1226 235.981 53.1226H222.229ZM236.042 16.4694H231.834V45.4077H235.981C239.498 45.4077 242.161 44.249 243.97 41.9315C245.8 39.614 246.715 36.2597 246.715 31.8686V29.917C246.715 25.5057 245.8 22.1615 243.97 19.8847C242.161 17.6079 239.518 16.4694 236.042 16.4694ZM296.695 38.2418C296.512 41.2708 295.688 43.9542 294.225 46.292C292.761 48.6095 290.718 50.429 288.096 51.7504C285.494 53.0717 282.363 53.7324 278.704 53.7324C274.861 53.7324 271.558 52.8684 268.793 51.1405C266.049 49.3922 263.935 46.9222 262.451 43.7306C260.967 40.5186 260.225 36.7069 260.225 32.2955V29.5816C260.225 25.1702 260.987 21.3585 262.512 18.1466C264.057 14.9346 266.211 12.4545 268.976 10.7062C271.761 8.95787 275.024 8.08373 278.765 8.08373C282.505 8.08373 285.656 8.77491 288.218 10.1573C290.799 11.5193 292.792 13.3896 294.194 15.7681C295.617 18.1466 296.471 20.8605 296.756 23.9098H287.181C286.998 21.3077 286.286 19.3358 285.046 17.9941C283.827 16.6321 281.733 15.951 278.765 15.951C275.797 15.951 273.581 17.0386 272.117 19.2138C270.674 21.389 269.952 24.8246 269.952 29.5206V32.2955C269.952 36.8899 270.613 40.3051 271.934 42.5413C273.276 44.7775 275.532 45.8956 278.704 45.8956C281.489 45.8956 283.542 45.2654 284.863 44.005C286.185 42.7243 286.947 40.8032 287.15 38.2418H296.695Z" fill="white"/>
<path d="M199.296 67.6767C204.439 67.6767 208.475 68.8253 211.402 71.1225C214.35 73.3993 215.824 76.7231 215.824 81.0938C215.824 84.3668 215.112 86.9892 213.689 88.9612C212.286 90.9127 210.376 92.4374 207.956 93.5352L217.44 111.618V112.075H207.164L199.022 96.0051H192.161V112.075H182.586V67.6767H199.296ZM199.296 75.4221H192.161V88.2598H199.266C201.583 88.2598 203.321 87.6906 204.48 86.5522C205.639 85.3934 206.218 83.8383 206.218 81.8867C206.218 79.8944 205.649 78.3189 204.511 77.1602C203.393 76.0014 201.654 75.4221 199.296 75.4221ZM236.195 112.685C232.718 112.685 229.74 111.963 227.26 110.52C224.8 109.077 222.91 107.145 221.588 104.726C220.287 102.307 219.637 99.6339 219.637 96.7065V95.5173C219.637 92.224 220.257 89.2966 221.497 86.7351C222.757 84.1737 224.546 82.1611 226.864 80.6974C229.181 79.2134 231.946 78.4714 235.158 78.4714C239.935 78.4714 243.574 79.9554 246.074 82.9235C248.575 85.8712 249.825 89.7946 249.825 94.6939V98.5971H228.998C229.323 100.61 230.157 102.226 231.499 103.446C232.861 104.645 234.619 105.245 236.774 105.245C238.339 105.245 239.793 104.96 241.134 104.391C242.497 103.801 243.665 102.887 244.641 101.646L249.093 106.739C248.056 108.223 246.451 109.585 244.275 110.825C242.1 112.065 239.407 112.685 236.195 112.685ZM235.097 85.8813C233.287 85.8813 231.905 86.4912 230.95 87.7109C229.994 88.9103 229.364 90.4757 229.059 92.4069H240.769V91.6751C240.748 89.9878 240.281 88.6054 239.366 87.528C238.471 86.4302 237.048 85.8813 235.097 85.8813ZM269.891 85.7898H264.311V101.768C264.311 103.11 264.575 104.005 265.104 104.452C265.652 104.899 266.506 105.123 267.665 105.123C268.214 105.123 268.702 105.102 269.129 105.062C269.556 105.021 269.922 104.97 270.226 104.909L270.196 111.862C269.444 112.106 268.62 112.299 267.726 112.441C266.852 112.604 265.866 112.685 264.768 112.685C261.8 112.685 259.442 111.923 257.694 110.398C255.966 108.873 255.102 106.342 255.102 102.805V85.7898H250.406V79.0813H255.102V70.9395H264.311V79.0813H269.891V85.7898ZM291.024 90.0894C291.024 88.6054 290.658 87.4263 289.926 86.5522C289.195 85.678 288.026 85.241 286.42 85.241C285.017 85.241 283.929 85.5764 283.157 86.2472C282.384 86.9181 281.998 87.8532 281.998 89.0526H272.789C272.789 87.1011 273.368 85.3324 274.527 83.7468C275.686 82.1408 277.322 80.8601 279.437 79.9046C281.551 78.9491 284.041 78.4714 286.908 78.4714C289.469 78.4714 291.756 78.9085 293.769 79.7826C295.781 80.6364 297.367 81.9273 298.526 83.6553C299.684 85.3833 300.264 87.5483 300.264 90.1504V103.933C300.264 105.885 300.376 107.43 300.599 108.568C300.843 109.707 301.179 110.703 301.605 111.557V112.075H292.335C291.97 111.303 291.675 110.337 291.451 109.178C290.597 110.154 289.5 110.988 288.158 111.679C286.836 112.35 285.2 112.685 283.248 112.685C281.154 112.685 279.254 112.268 277.546 111.435C275.859 110.581 274.517 109.412 273.521 107.928C272.525 106.424 272.027 104.706 272.027 102.775C272.027 99.3188 273.308 96.6455 275.869 94.7549C278.43 92.844 282.242 91.8885 287.304 91.8885H291.024V90.0894ZM285.291 105.702C286.714 105.702 287.914 105.397 288.89 104.787C289.886 104.157 290.597 103.466 291.024 102.714V97.1944H287.578C285.342 97.1944 283.726 97.6823 282.73 98.6581C281.734 99.6135 281.236 100.772 281.236 102.134C281.236 103.171 281.602 104.025 282.334 104.696C283.065 105.367 284.051 105.702 285.291 105.702ZM305.51 70.5736C305.51 69.2116 305.977 68.0833 306.913 67.1888C307.848 66.2944 309.098 65.8471 310.663 65.8471C312.229 65.8471 313.469 66.2944 314.383 67.1888C315.319 68.0833 315.786 69.2116 315.786 70.5736C315.786 71.956 315.319 73.0944 314.383 73.9889C313.469 74.863 312.229 75.3001 310.663 75.3001C309.098 75.3001 307.848 74.863 306.913 73.9889C305.977 73.0944 305.51 71.956 305.51 70.5736ZM315.298 112.075H306.059V79.0813H315.298V112.075ZM330.821 112.075H321.581V65.2373H330.821V112.075Z" fill="white"/>
<path d="M190.063 143.803C190.063 145.137 189.633 146.155 188.775 146.857C187.923 147.553 186.787 147.901 185.369 147.901H180.393V133.694H185.057C186.508 133.694 187.643 133.996 188.463 134.601C189.282 135.2 189.692 136.159 189.692 137.48C189.692 138.137 189.5 138.722 189.116 139.236C188.739 139.75 188.225 140.147 187.575 140.427C188.375 140.635 188.989 141.051 189.419 141.676C189.848 142.294 190.063 143.003 190.063 143.803ZM185.057 135.226H182.286V139.754H185.106C185.912 139.754 186.563 139.552 187.057 139.149C187.552 138.745 187.799 138.182 187.799 137.46C187.799 136.68 187.571 136.114 187.116 135.763C186.667 135.405 185.981 135.226 185.057 135.226ZM188.17 143.823C188.17 143.029 187.955 142.401 187.526 141.939C187.096 141.477 186.407 141.246 185.457 141.246H182.286V146.379H185.369C186.26 146.379 186.95 146.148 187.438 145.686C187.926 145.224 188.17 144.603 188.17 143.823ZM198.464 137.343H200.406L196.171 149.531C196.048 149.876 195.862 150.253 195.615 150.663C195.368 151.079 195.036 151.434 194.62 151.726C194.203 152.019 193.676 152.166 193.039 152.166C192.896 152.166 192.714 152.146 192.493 152.107C192.271 152.068 192.112 152.035 192.014 152.009V150.556C192.066 150.562 192.148 150.572 192.258 150.585C192.375 150.598 192.457 150.604 192.502 150.604C193.114 150.604 193.592 150.477 193.937 150.224C194.281 149.97 194.561 149.518 194.776 148.867L195.166 147.794L191.409 137.343H193.4L196.015 145.228L198.464 137.343ZM212.516 142.33H209.159V147.901H207.266V133.694H212.516C213.589 133.694 214.497 133.879 215.238 134.25C215.98 134.621 216.543 135.132 216.926 135.782C217.31 136.433 217.502 137.181 217.502 138.026C217.502 139.399 217.073 140.459 216.214 141.207C215.362 141.956 214.129 142.33 212.516 142.33ZM212.516 135.226H209.159V140.807H212.516C213.615 140.807 214.406 140.55 214.887 140.036C215.368 139.516 215.609 138.853 215.609 138.046C215.609 137.558 215.502 137.099 215.287 136.67C215.079 136.241 214.747 135.893 214.292 135.626C213.843 135.359 213.251 135.226 212.516 135.226ZM225.152 147.901H223.279V135.226H218.732V133.694H229.709V135.226H225.152V147.901ZM244.834 147.901H236.208V133.694H238.101V146.379H244.834V147.901ZM252.923 140.661C252.923 140.03 252.735 139.529 252.357 139.158C251.986 138.781 251.437 138.592 250.708 138.592C250.032 138.592 249.485 138.761 249.069 139.1C248.653 139.438 248.444 139.828 248.444 140.271H246.62C246.62 139.763 246.792 139.272 247.137 138.797C247.482 138.316 247.966 137.922 248.591 137.617C249.222 137.304 249.963 137.148 250.816 137.148C251.967 137.148 252.91 137.441 253.645 138.026C254.38 138.612 254.748 139.497 254.748 140.681V145.599C254.748 145.95 254.777 146.324 254.836 146.721C254.901 147.117 254.995 147.459 255.119 147.745V147.901H253.216C253.157 147.771 253.105 147.609 253.06 147.413C253.021 147.218 252.988 147.013 252.962 146.799C252.624 147.157 252.201 147.462 251.694 147.716C251.193 147.97 250.617 148.097 249.967 148.097C249.251 148.097 248.623 147.96 248.083 147.687C247.55 147.407 247.134 147.03 246.834 146.555C246.542 146.08 246.395 145.553 246.395 144.974C246.395 143.836 246.825 142.974 247.683 142.388C248.542 141.796 249.697 141.5 251.147 141.5H252.923V140.661ZM250.23 146.535C250.881 146.535 251.443 146.373 251.918 146.047C252.393 145.716 252.728 145.348 252.923 144.945V142.769H251.44C250.412 142.769 249.619 142.931 249.059 143.257C248.5 143.582 248.22 144.07 248.22 144.72C248.22 145.228 248.389 145.657 248.727 146.008C249.072 146.36 249.573 146.535 250.23 146.535ZM259.412 151.961H257.588V137.343H259.246L259.344 138.495C259.702 138.059 260.134 137.727 260.642 137.499C261.149 137.265 261.735 137.148 262.398 137.148C263.283 137.148 264.031 137.373 264.642 137.821C265.254 138.27 265.719 138.901 266.038 139.714C266.357 140.521 266.516 141.461 266.516 142.535V142.739C266.516 143.767 266.357 144.685 266.038 145.491C265.719 146.298 265.254 146.935 264.642 147.404C264.038 147.866 263.299 148.097 262.427 148.097C261.777 148.097 261.201 147.992 260.7 147.784C260.199 147.576 259.77 147.277 259.412 146.887V151.961ZM264.691 142.535C264.691 141.832 264.59 141.188 264.389 140.602C264.194 140.01 263.885 139.539 263.462 139.188C263.045 138.836 262.509 138.661 261.852 138.661C261.247 138.661 260.746 138.8 260.349 139.08C259.959 139.353 259.646 139.698 259.412 140.115V145.198C259.646 145.615 259.959 145.96 260.349 146.233C260.746 146.499 261.253 146.633 261.871 146.633C262.522 146.633 263.055 146.454 263.472 146.096C263.888 145.738 264.194 145.267 264.389 144.681C264.59 144.089 264.691 143.442 264.691 142.739V142.535ZM268.829 134.533C268.829 134.247 268.916 134.003 269.092 133.801C269.274 133.6 269.541 133.499 269.892 133.499C270.244 133.499 270.51 133.6 270.692 133.801C270.881 134.003 270.975 134.247 270.975 134.533C270.975 134.813 270.881 135.053 270.692 135.255C270.51 135.45 270.244 135.548 269.892 135.548C269.541 135.548 269.274 135.45 269.092 135.255C268.916 135.053 268.829 134.813 268.829 134.533ZM270.79 147.901H268.965V137.343H270.79V147.901ZM280.938 147.901H279.045V133.694H280.938V147.901ZM289.613 147.901H287.739V135.226H283.192V133.694H294.17V135.226H289.613V147.901ZM305.948 143.803C305.948 145.137 305.518 146.155 304.66 146.857C303.807 147.553 302.672 147.901 301.254 147.901H296.278V133.694H300.942C302.393 133.694 303.528 133.996 304.347 134.601C305.167 135.2 305.577 136.159 305.577 137.48C305.577 138.137 305.385 138.722 305.001 139.236C304.624 139.75 304.11 140.147 303.459 140.427C304.26 140.635 304.874 141.051 305.304 141.676C305.733 142.294 305.948 143.003 305.948 143.803ZM300.942 135.226H298.171V139.754H300.991C301.797 139.754 302.448 139.552 302.942 139.149C303.437 138.745 303.684 138.182 303.684 137.46C303.684 136.68 303.456 136.114 303.001 135.763C302.552 135.405 301.866 135.226 300.942 135.226ZM304.055 143.823C304.055 143.029 303.84 142.401 303.411 141.939C302.981 141.477 302.292 141.246 301.342 141.246H298.171V146.379H301.254C302.145 146.379 302.835 146.148 303.323 145.686C303.811 145.224 304.055 144.603 304.055 143.823Z" fill="white"/>
<g clip-path="url(#clip0)">
<path fill-rule="evenodd" clip-rule="evenodd" d="M158.759 37.0469V25.4336H0.759277V37.0473H4.65401V120.954H0.759277V132.568H158.759V120.954H154.865V37.0469H158.759ZM50.4072 120.954H20.5317V62.9268H50.4072V120.954ZM62.8055 63.748H81.9524V99.5984H62.8055V63.748ZM68.3946 118.323C65.9194 118.323 63.9135 116.317 63.9135 113.842C63.9135 111.367 65.9194 109.361 68.3946 109.361C70.8698 109.361 72.8761 111.367 72.8761 113.842C72.8761 116.317 70.8694 118.323 68.3946 118.323ZM84.3279 118.323C81.8527 118.323 79.8468 116.317 79.8468 113.842C79.8468 111.367 81.8527 109.361 84.3279 109.361C86.8027 109.361 88.8094 111.367 88.8094 113.842C88.8094 116.317 86.8027 118.323 84.3279 118.323ZM100.261 118.323C97.7864 118.323 95.7797 116.317 95.7797 113.842C95.7797 111.367 97.7864 109.361 100.261 109.361C102.736 109.361 104.743 111.367 104.743 113.842C104.743 116.317 102.736 118.323 100.261 118.323ZM110.47 99.5984H91.3221V63.748H110.47V99.5984ZM116.195 118.323C113.72 118.323 111.713 116.317 111.713 113.842C111.713 111.367 113.72 109.361 116.195 109.361C118.67 109.361 120.676 111.367 120.676 113.842C120.676 116.317 118.67 118.323 116.195 118.323ZM132.128 118.323C129.653 118.323 127.647 116.317 127.647 113.842C127.647 111.367 129.653 109.361 132.128 109.361C134.603 109.361 136.609 111.367 136.609 113.842C136.609 116.317 134.603 118.323 132.128 118.323ZM138.987 99.5984H119.84V63.748H138.987V99.5984Z" fill="white"/>
</g>
<defs>
<clipPath id="clip0">
<rect width="158" height="158" fill="white" transform="translate(0.759277)"/>
</clipPath>
</defs>
</svg>
