<svg width="339" height="158" viewBox="0 0 339 158" fill="none" xmlns="http://www.w3.org/2000/svg">
<path d="M217.232 38.2418C217.049 41.2708 216.225 43.9542 214.762 46.292C213.298 48.6095 211.255 50.429 208.632 51.7504C206.03 53.0717 202.9 53.7324 199.24 53.7324C195.398 53.7324 192.095 52.8684 189.33 51.1405C186.586 49.3922 184.471 46.9222 182.987 43.7306C181.503 40.5186 180.761 36.7069 180.761 32.2955V29.5816C180.761 25.1702 181.524 21.3585 183.048 18.1466C184.593 14.9346 186.748 12.4545 189.513 10.7062C192.298 8.95787 195.561 8.08373 199.301 8.08373C203.042 8.08373 206.193 8.77491 208.754 10.1573C211.336 11.5193 213.328 13.3896 214.731 15.7681C216.154 18.1466 217.008 20.8605 217.293 23.9098H207.718C207.535 21.3077 206.823 19.3358 205.583 17.9941C204.363 16.6321 202.269 15.951 199.301 15.951C196.333 15.951 194.118 17.0386 192.654 19.2138C191.211 21.389 190.489 24.8246 190.489 29.5206V32.2955C190.489 36.8899 191.15 40.3051 192.471 42.5413C193.813 44.7775 196.069 45.8956 199.24 45.8956C202.026 45.8956 204.079 45.2654 205.4 44.005C206.722 42.7243 207.484 40.8032 207.687 38.2418H217.232ZM221.746 53.1226V8.72409H235.559C239.564 8.72409 243.091 9.61857 246.141 11.4075C249.21 13.1965 251.609 15.6868 253.337 18.8784C255.065 22.0701 255.929 25.7699 255.929 29.978V31.8686C255.929 36.097 255.065 39.8071 253.337 42.9987C251.629 46.1904 249.241 48.6807 246.171 50.4696C243.101 52.2382 239.544 53.1226 235.498 53.1226H221.746ZM235.559 16.4694H231.351V45.4077H235.498C239.015 45.4077 241.678 44.249 243.488 41.9315C245.317 39.614 246.232 36.2597 246.232 31.8686V29.917C246.232 25.5057 245.317 22.1615 243.488 19.8847C241.678 17.6079 239.036 16.4694 235.559 16.4694ZM296.212 38.2418C296.029 41.2708 295.206 43.9542 293.742 46.292C292.278 48.6095 290.235 50.429 287.613 51.7504C285.011 53.0717 281.88 53.7324 278.221 53.7324C274.379 53.7324 271.075 52.8684 268.311 51.1405C265.566 49.3922 263.452 46.9222 261.968 43.7306C260.484 40.5186 259.742 36.7069 259.742 32.2955V29.5816C259.742 25.1702 260.504 21.3585 262.029 18.1466C263.574 14.9346 265.729 12.4545 268.494 10.7062C271.279 8.95787 274.541 8.08373 278.282 8.08373C282.022 8.08373 285.173 8.77491 287.735 10.1573C290.317 11.5193 292.309 13.3896 293.712 15.7681C295.135 18.1466 295.988 20.8605 296.273 23.9098H286.698C286.515 21.3077 285.804 19.3358 284.564 17.9941C283.344 16.6321 281.25 15.951 278.282 15.951C275.314 15.951 273.098 17.0386 271.634 19.2138C270.191 21.389 269.469 24.8246 269.469 29.5206V32.2955C269.469 36.8899 270.13 40.3051 271.451 42.5413C272.793 44.7775 275.05 45.8956 278.221 45.8956C281.006 45.8956 283.059 45.2654 284.381 44.005C285.702 42.7243 286.464 40.8032 286.668 38.2418H296.212Z" fill="white"/>
<path d="M215.402 98.963C215.402 103.293 214.009 106.566 211.224 108.782C208.439 110.977 204.445 112.075 199.24 112.075H182.073V67.6767H197.777C203.001 67.6767 207.087 68.6728 210.035 70.6651C212.983 72.6573 214.457 75.727 214.457 79.8741C214.457 81.8663 213.959 83.7163 212.963 85.4239C211.966 87.1112 210.371 88.3919 208.175 89.2661C210.757 89.9166 212.607 91.1669 213.725 93.0168C214.843 94.8667 215.402 96.8488 215.402 98.963ZM197.777 75.4221H191.678V86.1863H197.777C202.513 86.1863 204.882 84.4278 204.882 80.9109C204.882 78.9593 204.313 77.5566 203.174 76.7028C202.036 75.849 200.237 75.4221 197.777 75.4221ZM205.858 98.8715C205.858 97.0216 205.38 95.5579 204.424 94.4805C203.469 93.403 201.873 92.8643 199.637 92.8643H191.678V104.36H199.24C201.538 104.36 203.215 103.832 204.272 102.775C205.329 101.718 205.858 100.417 205.858 98.8715ZM239.676 79.0813H248.885V112.075H240.255L240.011 108.69C238.995 109.951 237.735 110.937 236.23 111.648C234.746 112.339 233.018 112.685 231.046 112.685C227.794 112.685 225.151 111.73 223.118 109.819C221.106 107.908 220.099 104.777 220.099 100.427V79.0813H229.308V100.488C229.308 102.175 229.725 103.385 230.558 104.116C231.392 104.848 232.469 105.214 233.791 105.214C235.315 105.214 236.545 104.95 237.48 104.421C238.436 103.893 239.168 103.181 239.676 102.287V79.0813ZM263.828 112.075H254.589V65.2373H263.828V112.075ZM278.863 112.075H269.654V65.2068H278.863V90.8213L280.418 88.8392L288.59 79.0813H299.659L287.858 92.7728L300.635 112.075H290.054L281.942 99.1155L278.863 102.195V112.075ZM320.396 79.0813H330.245L317.072 117.015C316.686 118.113 316.106 119.312 315.334 120.613C314.582 121.935 313.494 123.063 312.071 123.998C310.668 124.933 308.788 125.401 306.43 125.401C305.576 125.401 304.885 125.35 304.356 125.248C303.828 125.167 303.187 125.025 302.435 124.821V117.869C302.862 117.889 303.309 117.899 303.777 117.899C305.485 117.899 306.735 117.625 307.528 117.076C308.341 116.548 308.951 115.714 309.357 114.576L310.272 112.197L298.745 79.0813H308.656L314.511 98.963L320.396 79.0813Z" fill="white"/>
<path fill-rule="evenodd" clip-rule="evenodd" d="M76.6027 15.5777C78.3049 14.8211 80.248 14.8211 81.9502 15.5777L141.2 41.911C143.578 42.9676 145.11 45.3253 145.11 47.9269V133.51C145.11 137.146 142.162 140.094 138.526 140.094C134.891 140.094 131.943 137.146 131.943 133.51V52.2053L79.2765 28.7978L26.6098 52.2053V133.51C26.6098 137.146 23.6623 140.094 20.0264 140.094C16.3906 140.094 13.4431 137.146 13.4431 133.51V47.9269C13.4431 45.3253 14.9753 42.9676 17.3527 41.911L76.6027 15.5777ZM92.4432 74.2601V74.2597C92.4432 70.7677 91.056 67.4187 88.5868 64.9495C86.1175 62.4802 82.7685 61.093 79.2765 61.093H66.1098C62.6178 61.093 59.2688 62.4802 56.7996 64.9495C54.3304 67.4187 52.9432 70.7677 52.9432 74.2597V87.4268H46.3603C42.7245 87.4268 39.777 90.3742 39.777 94.0101V133.51C39.777 137.146 42.7245 140.093 46.3603 140.093H112.194C115.83 140.093 118.777 137.146 118.777 133.51V80.8434C118.777 77.2076 115.83 74.2601 112.194 74.2601H92.4432ZM92.4432 93.9285V87.4268H105.61V126.927H92.4432V94.0918C92.4435 94.0646 92.4437 94.0374 92.4437 94.0101C92.4437 93.9828 92.4435 93.9556 92.4432 93.9285ZM79.2765 87.4268V74.2597H66.1098V87.4268H79.2765ZM79.2765 100.593V126.927H52.9437V100.593H79.2765Z" fill="white"/>
<path d="M189.58 143.803C189.58 145.137 189.151 146.155 188.292 146.857C187.44 147.553 186.305 147.901 184.887 147.901H179.91V133.694H184.574C186.025 133.694 187.16 133.996 187.98 134.601C188.8 135.2 189.209 136.159 189.209 137.48C189.209 138.137 189.017 138.722 188.634 139.236C188.256 139.75 187.742 140.147 187.092 140.427C187.892 140.635 188.507 141.051 188.936 141.676C189.365 142.294 189.58 143.003 189.58 143.803ZM184.574 135.226H181.803V139.754H184.623C185.43 139.754 186.08 139.552 186.575 139.149C187.069 138.745 187.316 138.182 187.316 137.46C187.316 136.68 187.089 136.114 186.633 135.763C186.184 135.405 185.498 135.226 184.574 135.226ZM187.687 143.823C187.687 143.029 187.472 142.401 187.043 141.939C186.614 141.477 185.924 141.246 184.974 141.246H181.803V146.379H184.887C185.778 146.379 186.467 146.148 186.955 145.686C187.443 145.224 187.687 144.603 187.687 143.823ZM197.982 137.343H199.924L195.689 149.531C195.565 149.876 195.38 150.253 195.132 150.663C194.885 151.079 194.553 151.434 194.137 151.726C193.721 152.019 193.194 152.166 192.556 152.166C192.413 152.166 192.231 152.146 192.01 152.107C191.789 152.068 191.629 152.035 191.532 152.009V150.556C191.584 150.562 191.665 150.572 191.776 150.585C191.893 150.598 191.974 150.604 192.02 150.604C192.631 150.604 193.109 150.477 193.454 150.224C193.799 149.97 194.079 149.518 194.293 148.867L194.684 147.794L190.927 137.343H192.917L195.532 145.228L197.982 137.343ZM212.033 142.33H208.676V147.901H206.783V133.694H212.033C213.106 133.694 214.014 133.879 214.756 134.25C215.497 134.621 216.06 135.132 216.444 135.782C216.827 136.433 217.019 137.181 217.019 138.026C217.019 139.399 216.59 140.459 215.731 141.207C214.879 141.956 213.646 142.33 212.033 142.33ZM212.033 135.226H208.676V140.807H212.033C213.132 140.807 213.923 140.55 214.404 140.036C214.886 139.516 215.126 138.853 215.126 138.046C215.126 137.558 215.019 137.099 214.804 136.67C214.596 136.241 214.264 135.893 213.809 135.626C213.36 135.359 212.768 135.226 212.033 135.226ZM224.67 147.901H222.796V135.226H218.249V133.694H229.227V135.226H224.67V147.901ZM244.351 147.901H235.725V133.694H237.618V146.379H244.351V147.901ZM252.441 140.661C252.441 140.03 252.252 139.529 251.875 139.158C251.504 138.781 250.954 138.592 250.226 138.592C249.549 138.592 249.003 138.761 248.586 139.1C248.17 139.438 247.962 139.828 247.962 140.271H246.137C246.137 139.763 246.309 139.272 246.654 138.797C246.999 138.316 247.484 137.922 248.108 137.617C248.739 137.304 249.481 137.148 250.333 137.148C251.484 137.148 252.428 137.441 253.163 138.026C253.898 138.612 254.265 139.497 254.265 140.681V145.599C254.265 145.95 254.295 146.324 254.353 146.721C254.418 147.117 254.513 147.459 254.636 147.745V147.901H252.733C252.675 147.771 252.623 147.609 252.577 147.413C252.538 147.218 252.506 147.013 252.48 146.799C252.141 147.157 251.718 147.462 251.211 147.716C250.71 147.97 250.134 148.097 249.484 148.097C248.768 148.097 248.141 147.96 247.601 147.687C247.067 147.407 246.651 147.03 246.352 146.555C246.059 146.08 245.913 145.553 245.913 144.974C245.913 143.836 246.342 142.974 247.201 142.388C248.059 141.796 249.214 141.5 250.665 141.5H252.441V140.661ZM249.747 146.535C250.398 146.535 250.961 146.373 251.436 146.047C251.91 145.716 252.245 145.348 252.441 144.945V142.769H250.957C249.93 142.769 249.136 142.931 248.576 143.257C248.017 143.582 247.737 144.07 247.737 144.72C247.737 145.228 247.906 145.657 248.245 146.008C248.589 146.36 249.09 146.535 249.747 146.535ZM258.93 151.961H257.105V137.343H258.764L258.861 138.495C259.219 138.059 259.652 137.727 260.159 137.499C260.666 137.265 261.252 137.148 261.916 137.148C262.8 137.148 263.548 137.373 264.16 137.821C264.771 138.27 265.236 138.901 265.555 139.714C265.874 140.521 266.033 141.461 266.033 142.535V142.739C266.033 143.767 265.874 144.685 265.555 145.491C265.236 146.298 264.771 146.935 264.16 147.404C263.555 147.866 262.816 148.097 261.945 148.097C261.294 148.097 260.719 147.992 260.218 147.784C259.717 147.576 259.287 147.277 258.93 146.887V151.961ZM264.209 142.535C264.209 141.832 264.108 141.188 263.906 140.602C263.711 140.01 263.402 139.539 262.979 139.188C262.563 138.836 262.026 138.661 261.369 138.661C260.764 138.661 260.263 138.8 259.866 139.08C259.476 139.353 259.164 139.698 258.93 140.115V145.198C259.164 145.615 259.476 145.96 259.866 146.233C260.263 146.499 260.771 146.633 261.389 146.633C262.039 146.633 262.573 146.454 262.989 146.096C263.405 145.738 263.711 145.267 263.906 144.681C264.108 144.089 264.209 143.442 264.209 142.739V142.535ZM268.346 134.533C268.346 134.247 268.434 134.003 268.609 133.801C268.792 133.6 269.058 133.499 269.41 133.499C269.761 133.499 270.028 133.6 270.21 133.801C270.398 134.003 270.493 134.247 270.493 134.533C270.493 134.813 270.398 135.053 270.21 135.255C270.028 135.45 269.761 135.548 269.41 135.548C269.058 135.548 268.792 135.45 268.609 135.255C268.434 135.053 268.346 134.813 268.346 134.533ZM270.307 147.901H268.483V137.343H270.307V147.901ZM280.456 147.901H278.562V133.694H280.456V147.901ZM289.13 147.901H287.257V135.226H282.71V133.694H293.687V135.226H289.13V147.901ZM305.465 143.803C305.465 145.137 305.036 146.155 304.177 146.857C303.325 147.553 302.19 147.901 300.771 147.901H295.795V133.694H300.459C301.91 133.694 303.045 133.996 303.865 134.601C304.684 135.2 305.094 136.159 305.094 137.48C305.094 138.137 304.902 138.722 304.519 139.236C304.141 139.75 303.627 140.147 302.977 140.427C303.777 140.635 304.392 141.051 304.821 141.676C305.25 142.294 305.465 143.003 305.465 143.803ZM300.459 135.226H297.688V139.754H300.508C301.315 139.754 301.965 139.552 302.46 139.149C302.954 138.745 303.201 138.182 303.201 137.46C303.201 136.68 302.974 136.114 302.518 135.763C302.069 135.405 301.383 135.226 300.459 135.226ZM303.572 143.823C303.572 143.029 303.357 142.401 302.928 141.939C302.499 141.477 301.809 141.246 300.859 141.246H297.688V146.379H300.771C301.663 146.379 302.352 146.148 302.84 145.686C303.328 145.224 303.572 144.603 303.572 143.823Z" fill="white"/>
</svg>
