<svg width="441" height="158" viewBox="0 0 441 158" fill="none" xmlns="http://www.w3.org/2000/svg">
<path d="M216.955 38.2418C216.772 41.2708 215.948 43.9542 214.485 46.292C213.021 48.6095 210.978 50.429 208.356 51.7504C205.754 53.0717 202.623 53.7324 198.964 53.7324C195.121 53.7324 191.818 52.8684 189.053 51.1405C186.309 49.3922 184.195 46.9222 182.711 43.7306C181.227 40.5186 180.485 36.7069 180.485 32.2955V29.5816C180.485 25.1702 181.247 21.3585 182.772 18.1466C184.317 14.9346 186.471 12.4545 189.236 10.7062C192.021 8.95787 195.284 8.08373 199.025 8.08373C202.765 8.08373 205.916 8.77491 208.478 10.1573C211.059 11.5193 213.052 13.3896 214.454 15.7681C215.877 18.1466 216.731 20.8605 217.016 23.9098H207.441C207.258 21.3077 206.546 19.3358 205.306 17.9941C204.087 16.6321 201.993 15.951 199.025 15.951C196.057 15.951 193.841 17.0386 192.377 19.2138C190.934 21.389 190.212 24.8246 190.212 29.5206V32.2955C190.212 36.8899 190.873 40.3051 192.194 42.5413C193.536 44.7775 195.792 45.8956 198.964 45.8956C201.749 45.8956 203.802 45.2654 205.123 44.005C206.445 42.7243 207.207 40.8032 207.41 38.2418H216.955ZM221.469 53.1226V8.72409H235.283C239.287 8.72409 242.814 9.61857 245.864 11.4075C248.933 13.1965 251.332 15.6868 253.06 18.8784C254.788 22.0701 255.652 25.7699 255.652 29.978V31.8686C255.652 36.097 254.788 39.8071 253.06 42.9987C251.353 46.1904 248.964 48.6807 245.894 50.4696C242.825 52.2382 239.267 53.1226 235.222 53.1226H221.469ZM235.283 16.4694H231.074V45.4077H235.222C238.738 45.4077 241.402 44.249 243.211 41.9315C245.04 39.614 245.955 36.2597 245.955 31.8686V29.917C245.955 25.5057 245.04 22.1615 243.211 19.8847C241.402 17.6079 238.759 16.4694 235.283 16.4694ZM295.935 38.2418C295.752 41.2708 294.929 43.9542 293.465 46.292C292.002 48.6095 289.959 50.429 287.336 51.7504C284.734 53.0717 281.603 53.7324 277.944 53.7324C274.102 53.7324 270.798 52.8684 268.034 51.1405C265.289 49.3922 263.175 46.9222 261.691 43.7306C260.207 40.5186 259.465 36.7069 259.465 32.2955V29.5816C259.465 25.1702 260.227 21.3585 261.752 18.1466C263.297 14.9346 265.452 12.4545 268.217 10.7062C271.002 8.95787 274.265 8.08373 278.005 8.08373C281.746 8.08373 284.897 8.77491 287.458 10.1573C290.04 11.5193 292.032 13.3896 293.435 15.7681C294.858 18.1466 295.712 20.8605 295.996 23.9098H286.421C286.238 21.3077 285.527 19.3358 284.287 17.9941C283.067 16.6321 280.973 15.951 278.005 15.951C275.037 15.951 272.821 17.0386 271.358 19.2138C269.914 21.389 269.192 24.8246 269.192 29.5206V32.2955C269.192 36.8899 269.853 40.3051 271.175 42.5413C272.516 44.7775 274.773 45.8956 277.944 45.8956C280.729 45.8956 282.782 45.2654 284.104 44.005C285.425 42.7243 286.188 40.8032 286.391 38.2418H295.935Z" fill="white"/>
<path d="M199.269 96.615H191.401V112.075H181.796V67.6767H199.269C202.785 67.6767 205.794 68.3171 208.295 69.5978C210.815 70.8785 212.747 72.637 214.088 74.8732C215.45 77.089 216.131 79.62 216.131 82.4661C216.131 86.7758 214.637 90.2114 211.649 92.7728C208.661 95.3343 204.534 96.615 199.269 96.615ZM199.269 75.4221H191.401V88.9002H199.269C201.789 88.9002 203.609 88.3106 204.727 87.1316C205.845 85.9321 206.404 84.3973 206.404 82.527C206.404 80.6771 205.845 79.0305 204.727 77.5871C203.609 76.1437 201.789 75.4221 199.269 75.4221ZM235.862 112.685C232.386 112.685 229.407 111.963 226.927 110.52C224.468 109.077 222.577 107.145 221.256 104.726C219.955 102.307 219.304 99.6339 219.304 96.7065V95.5173C219.304 92.224 219.924 89.2966 221.164 86.7351C222.424 84.1737 224.213 82.1611 226.531 80.6974C228.848 79.2134 231.613 78.4714 234.825 78.4714C239.602 78.4714 243.241 79.9554 245.742 82.9235C248.242 85.8712 249.492 89.7946 249.492 94.6939V98.5971H228.665C228.991 100.61 229.824 102.226 231.166 103.446C232.528 104.645 234.286 105.245 236.441 105.245C238.007 105.245 239.46 104.96 240.802 104.391C242.164 103.801 243.333 102.887 244.309 101.646L248.761 106.739C247.724 108.223 246.118 109.585 243.943 110.825C241.767 112.065 239.074 112.685 235.862 112.685ZM234.764 85.8813C232.955 85.8813 231.573 86.4912 230.617 87.7109C229.662 88.9103 229.031 90.4757 228.726 92.4069H240.436V91.6751C240.416 89.9878 239.948 88.6054 239.033 87.528C238.139 86.4302 236.716 85.8813 234.764 85.8813ZM262.27 112.075H253.061V79.0813H261.722L262.027 82.6795C263.104 81.3581 264.425 80.3315 265.991 79.5997C267.576 78.8475 269.386 78.4714 271.419 78.4714C273.37 78.4714 275.098 78.8678 276.602 79.6607C278.107 80.4535 279.276 81.7139 280.109 83.4418C281.166 81.8968 282.508 80.6873 284.134 79.8131C285.781 78.9186 287.712 78.4714 289.928 78.4714C293.099 78.4714 295.651 79.4167 297.582 81.3073C299.513 83.1979 300.479 86.4709 300.479 91.1262V112.075H291.209V91.0957C291.209 88.9815 290.792 87.5991 289.959 86.9486C289.125 86.2777 287.976 85.9423 286.513 85.9423C285.252 85.9423 284.195 86.2472 283.341 86.8571C282.488 87.467 281.827 88.2903 281.359 89.3271C281.359 89.571 281.359 89.815 281.359 90.0589V112.075H272.15V91.1872C272.15 89.073 271.723 87.6703 270.87 86.9791C270.036 86.2879 268.877 85.9423 267.393 85.9423C266.214 85.9423 265.198 86.1964 264.344 86.7046C263.49 87.2129 262.799 87.9142 262.27 88.8087V112.075ZM323.503 90.0894C323.503 88.6054 323.137 87.4263 322.405 86.5522C321.673 85.678 320.504 85.241 318.898 85.241C317.495 85.241 316.408 85.5764 315.635 86.2472C314.863 86.9181 314.476 87.8532 314.476 89.0526H305.267C305.267 87.1011 305.847 85.3324 307.006 83.7468C308.164 82.1408 309.801 80.8601 311.915 79.9046C314.029 78.9491 316.52 78.4714 319.386 78.4714C321.947 78.4714 324.234 78.9085 326.247 79.7826C328.26 80.6364 329.845 81.9273 331.004 83.6553C332.163 85.3833 332.742 87.5483 332.742 90.1504V103.933C332.742 105.885 332.854 107.43 333.077 108.568C333.321 109.707 333.657 110.703 334.084 111.557V112.075H324.814C324.448 111.303 324.153 110.337 323.929 109.178C323.076 110.154 321.978 110.988 320.636 111.679C319.315 112.35 317.678 112.685 315.727 112.685C313.633 112.685 311.732 112.268 310.024 111.435C308.337 110.581 306.995 109.412 305.999 107.928C305.003 106.424 304.505 104.706 304.505 102.775C304.505 99.3188 305.786 96.6455 308.347 94.7549C310.909 92.844 314.72 91.8885 319.782 91.8885H323.503V90.0894ZM317.77 105.702C319.193 105.702 320.392 105.397 321.368 104.787C322.364 104.157 323.076 103.466 323.503 102.714V97.1944H320.057C317.821 97.1944 316.204 97.6823 315.208 98.6581C314.212 99.6135 313.714 100.772 313.714 102.134C313.714 103.171 314.08 104.025 314.812 104.696C315.544 105.367 316.53 105.702 317.77 105.702ZM355.766 102.866C355.766 101.972 355.329 101.23 354.455 100.64C353.601 100.03 351.822 99.4407 349.118 98.8715C346.882 98.404 344.88 97.7534 343.111 96.9199C341.363 96.0661 339.97 94.9785 338.933 93.6571C337.917 92.3358 337.409 90.7196 337.409 88.8087C337.409 86.9588 337.937 85.2511 338.994 83.6858C340.052 82.1205 341.566 80.8601 343.538 79.9046C345.53 78.9491 347.909 78.4714 350.673 78.4714C355.004 78.4714 358.409 79.4777 360.889 81.4903C363.389 83.4825 364.639 86.0338 364.639 89.1441H355.43C355.43 87.9041 355.044 86.8978 354.272 86.1253C353.519 85.3324 352.31 84.936 350.643 84.936C349.281 84.936 348.203 85.2613 347.411 85.9118C346.618 86.5623 346.221 87.3755 346.221 88.3513C346.221 89.2864 346.658 90.0488 347.533 90.6383C348.427 91.2075 349.982 91.6954 352.198 92.102C354.536 92.5695 356.65 93.1896 358.541 93.9621C360.431 94.7143 361.936 95.7815 363.054 97.1639C364.172 98.5259 364.731 100.315 364.731 102.531C364.731 104.482 364.152 106.22 362.993 107.745C361.854 109.27 360.228 110.479 358.114 111.374C356.02 112.248 353.55 112.685 350.704 112.685C347.594 112.685 344.971 112.126 342.837 111.008C340.702 109.89 339.086 108.477 337.988 106.769C336.89 105.041 336.342 103.283 336.342 101.494H345.063C345.144 103.141 345.744 104.34 346.862 105.092C348 105.824 349.352 106.19 350.917 106.19C352.503 106.19 353.702 105.885 354.516 105.275C355.349 104.665 355.766 103.862 355.766 102.866ZM367.599 95.2733C367.599 92.0613 368.208 89.1949 369.428 86.6741C370.648 84.133 372.427 82.1306 374.764 80.6669C377.102 79.2033 379.938 78.4714 383.272 78.4714C386.647 78.4714 389.503 79.2033 391.841 80.6669C394.199 82.1306 395.978 84.133 397.177 86.6741C398.397 89.1949 399.007 92.0613 399.007 95.2733V95.9137C399.007 99.1053 398.397 101.972 397.177 104.513C395.978 107.034 394.209 109.026 391.871 110.49C389.533 111.953 386.687 112.685 383.333 112.685C379.979 112.685 377.123 111.953 374.764 110.49C372.427 109.026 370.648 107.034 369.428 104.513C368.208 101.972 367.599 99.1053 367.599 95.9137V95.2733ZM376.838 95.9137C376.838 97.6416 377.041 99.2171 377.448 100.64C377.854 102.063 378.536 103.191 379.491 104.025C380.446 104.858 381.727 105.275 383.333 105.275C385.712 105.275 387.379 104.371 388.334 102.561C389.31 100.732 389.798 98.5158 389.798 95.9137V95.2733C389.798 93.586 389.584 92.0308 389.157 90.6078C388.751 89.1848 388.07 88.0464 387.114 87.1925C386.179 86.3184 384.898 85.8813 383.272 85.8813C381.686 85.8813 380.426 86.3184 379.491 87.1925C378.556 88.0464 377.875 89.1848 377.448 90.6078C377.041 92.0308 376.838 93.586 376.838 95.2733V95.9137ZM412.242 112.075H403.033V65.2068H412.242V90.8213L413.797 88.8392L421.97 79.0813H433.039L421.238 92.7728L434.014 112.075H423.433L415.322 99.1155L412.242 102.195V112.075Z" fill="white"/>
<path d="M13.1147 89.225C13.1147 85.776 15.9108 82.98 19.3598 82.98H138.64C142.089 82.98 144.885 85.776 144.885 89.225V138.641C144.885 142.09 142.089 144.886 138.64 144.886H19.3598C15.9107 144.886 13.1147 142.09 13.1147 138.641V89.225Z" fill="white"/>
<path d="M98.3025 45.4671C98.3025 44.0875 99.4209 42.9691 100.8 42.9691H103.525C104.905 42.9691 106.023 44.0875 106.023 45.4671V62.2488C106.023 62.5844 106.124 62.9157 106.305 63.1981C106.945 64.1955 108.383 64.4134 109.221 63.5754L114.044 58.7528C115.019 57.7772 116.601 57.7772 117.577 58.7528L119.503 60.6789C120.478 61.6545 120.478 63.2362 119.503 64.2117L109.966 73.7475C109.836 73.8773 109.765 74.057 109.796 74.2381C109.857 74.5928 110.176 74.8823 110.536 74.8823H133.796C134.854 74.8823 135.81 74.2192 136.089 73.1988C136.622 71.2517 136.907 69.2303 136.907 67.1613C136.907 60.9646 134.385 55.0538 130.023 50.7341C129.442 50.1584 129.14 49.3573 129.173 48.5397C129.182 48.312 129.186 48.0853 129.186 47.859C129.186 41.8325 126.31 36.1746 121.531 32.5493C121.49 32.5179 121.465 32.469 121.465 32.4171C121.465 21.7747 112.805 13.1147 102.163 13.1147C91.5205 13.1147 82.8606 21.7747 82.8606 32.4171C82.8606 32.469 82.8361 32.5179 82.7947 32.5493C78.6809 35.67 75.9772 40.296 75.3042 45.3679C75.1227 46.7356 76.259 47.8514 77.6364 47.93C83.7407 48.2782 89.38 49.8913 94.198 52.3995C95.9916 53.3332 98.3025 52.1065 98.3025 50.0844V45.4671Z" fill="white"/>
<path d="M48.1162 74.8819H102.163C102.163 64.2395 90.0385 55.5796 75.1395 55.5796C60.2405 55.5796 48.1162 64.2395 48.1162 74.8819Z" fill="white"/>
<path d="M21.093 55.5799C21.093 56.2134 21.1311 56.8314 21.1968 57.4319C21.3255 58.6098 22.3682 59.4404 23.5531 59.4404H30.1764C31.556 59.4404 32.6744 60.5588 32.6744 61.9384V64.6633C32.6744 66.0429 31.556 67.1613 30.1764 67.1613H26.2805C24.7002 67.1613 23.517 68.6103 23.8329 70.1588L24.3889 72.8837C24.6262 74.0468 25.6493 74.8823 26.8365 74.8823H37.8974C39.277 74.8823 40.3798 73.7592 40.5438 72.3894C41.5818 63.7157 47.9816 56.2847 57.0823 51.9476C58.1943 51.4177 58.8443 50.1902 58.455 49.0215C58.0023 47.6627 57.4119 46.3436 56.6063 45.0994C55.1833 42.9026 53.3425 41.1144 51.2417 39.7259C49.7702 38.7534 49.3625 36.6299 50.6097 35.3827L56.8004 29.192C57.7759 28.2165 57.7759 26.6348 56.8004 25.6593L54.8742 23.7331C53.8986 22.7575 52.317 22.7575 51.3414 23.7331L48.5202 26.5542C46.9466 28.1279 44.2558 27.0134 44.2558 24.7879V15.6128C44.2558 14.2332 43.1374 13.1147 41.7578 13.1147H39.0329C37.6533 13.1147 36.5349 14.2331 36.5349 15.6128V24.7879C36.5349 27.0134 33.8442 28.1279 32.2705 26.5542L29.4493 23.7331C28.4738 22.7575 26.8921 22.7575 25.9166 23.7331L23.9905 25.6592C23.0149 26.6348 23.0149 28.2165 23.9906 29.192L30.1108 35.3117C31.355 36.5558 30.9544 38.6795 29.5034 39.6747C24.4313 43.1532 21.093 48.9789 21.093 55.5799Z" fill="white"/>
<path d="M189.303 143.803C189.303 145.137 188.874 146.155 188.015 146.857C187.163 147.553 186.028 147.901 184.61 147.901H179.633V133.694H184.297C185.748 133.694 186.883 133.996 187.703 134.601C188.523 135.2 188.933 136.159 188.933 137.48C188.933 138.137 188.741 138.722 188.357 139.236C187.979 139.75 187.466 140.147 186.815 140.427C187.615 140.635 188.23 141.051 188.659 141.676C189.089 142.294 189.303 143.003 189.303 143.803ZM184.297 135.226H181.526V139.754H184.346C185.153 139.754 185.803 139.552 186.298 139.149C186.792 138.745 187.039 138.182 187.039 137.46C187.039 136.68 186.812 136.114 186.356 135.763C185.908 135.405 185.221 135.226 184.297 135.226ZM187.41 143.823C187.41 143.029 187.196 142.401 186.766 141.939C186.337 141.477 185.647 141.246 184.698 141.246H181.526V146.379H184.61C185.501 146.379 186.191 146.148 186.678 145.686C187.166 145.224 187.41 144.603 187.41 143.823ZM197.705 137.343H199.647L195.412 149.531C195.288 149.876 195.103 150.253 194.856 150.663C194.608 151.079 194.277 151.434 193.86 151.726C193.444 152.019 192.917 152.166 192.279 152.166C192.136 152.166 191.954 152.146 191.733 152.107C191.512 152.068 191.352 152.035 191.255 152.009V150.556C191.307 150.562 191.388 150.572 191.499 150.585C191.616 150.598 191.697 150.604 191.743 150.604C192.354 150.604 192.832 150.477 193.177 150.224C193.522 149.97 193.802 149.518 194.016 148.867L194.407 147.794L190.65 137.343H192.641L195.256 145.228L197.705 137.343ZM211.756 142.33H208.4V147.901H206.506V133.694H211.756C212.83 133.694 213.737 133.879 214.479 134.25C215.22 134.621 215.783 135.132 216.167 135.782C216.551 136.433 216.743 137.181 216.743 138.026C216.743 139.399 216.313 140.459 215.454 141.207C214.602 141.956 213.37 142.33 211.756 142.33ZM211.756 135.226H208.4V140.807H211.756C212.856 140.807 213.646 140.55 214.127 140.036C214.609 139.516 214.849 138.853 214.849 138.046C214.849 137.558 214.742 137.099 214.527 136.67C214.319 136.241 213.988 135.893 213.532 135.626C213.083 135.359 212.491 135.226 211.756 135.226ZM224.393 147.901H222.519V135.226H217.972V133.694H228.95V135.226H224.393V147.901ZM244.074 147.901H235.448V133.694H237.341V146.379H244.074V147.901ZM252.164 140.661C252.164 140.03 251.975 139.529 251.598 139.158C251.227 138.781 250.677 138.592 249.949 138.592C249.272 138.592 248.726 138.761 248.309 139.1C247.893 139.438 247.685 139.828 247.685 140.271H245.86C245.86 139.763 246.033 139.272 246.377 138.797C246.722 138.316 247.207 137.922 247.831 137.617C248.462 137.304 249.204 137.148 250.056 137.148C251.207 137.148 252.151 137.441 252.886 138.026C253.621 138.612 253.988 139.497 253.988 140.681V145.599C253.988 145.95 254.018 146.324 254.076 146.721C254.141 147.117 254.236 147.459 254.359 147.745V147.901H252.456C252.398 147.771 252.346 147.609 252.3 147.413C252.261 147.218 252.229 147.013 252.203 146.799C251.864 147.157 251.442 147.462 250.934 147.716C250.433 147.97 249.858 148.097 249.207 148.097C248.492 148.097 247.864 147.96 247.324 147.687C246.79 147.407 246.374 147.03 246.075 146.555C245.782 146.08 245.636 145.553 245.636 144.974C245.636 143.836 246.065 142.974 246.924 142.388C247.782 141.796 248.937 141.5 250.388 141.5H252.164V140.661ZM249.471 146.535C250.121 146.535 250.684 146.373 251.159 146.047C251.634 145.716 251.969 145.348 252.164 144.945V142.769H250.681C249.653 142.769 248.859 142.931 248.3 143.257C247.74 143.582 247.46 144.07 247.46 144.72C247.46 145.228 247.63 145.657 247.968 146.008C248.313 146.36 248.814 146.535 249.471 146.535ZM258.653 151.961H256.828V137.343H258.487L258.584 138.495C258.942 138.059 259.375 137.727 259.882 137.499C260.39 137.265 260.975 137.148 261.639 137.148C262.523 137.148 263.271 137.373 263.883 137.821C264.494 138.27 264.96 138.901 265.278 139.714C265.597 140.521 265.756 141.461 265.756 142.535V142.739C265.756 143.767 265.597 144.685 265.278 145.491C264.96 146.298 264.494 146.935 263.883 147.404C263.278 147.866 262.54 148.097 261.668 148.097C261.017 148.097 260.442 147.992 259.941 147.784C259.44 147.576 259.011 147.277 258.653 146.887V151.961ZM263.932 142.535C263.932 141.832 263.831 141.188 263.629 140.602C263.434 140.01 263.125 139.539 262.702 139.188C262.286 138.836 261.749 138.661 261.092 138.661C260.487 138.661 259.986 138.8 259.589 139.08C259.199 139.353 258.887 139.698 258.653 140.115V145.198C258.887 145.615 259.199 145.96 259.589 146.233C259.986 146.499 260.494 146.633 261.112 146.633C261.762 146.633 262.296 146.454 262.712 146.096C263.128 145.738 263.434 145.267 263.629 144.681C263.831 144.089 263.932 143.442 263.932 142.739V142.535ZM268.069 134.533C268.069 134.247 268.157 134.003 268.333 133.801C268.515 133.6 268.781 133.499 269.133 133.499C269.484 133.499 269.751 133.6 269.933 133.801C270.122 134.003 270.216 134.247 270.216 134.533C270.216 134.813 270.122 135.053 269.933 135.255C269.751 135.45 269.484 135.548 269.133 135.548C268.781 135.548 268.515 135.45 268.333 135.255C268.157 135.053 268.069 134.813 268.069 134.533ZM270.03 147.901H268.206V137.343H270.03V147.901ZM280.179 147.901H278.286V133.694H280.179V147.901ZM288.853 147.901H286.98V135.226H282.433V133.694H293.41V135.226H288.853V147.901ZM305.188 143.803C305.188 145.137 304.759 146.155 303.9 146.857C303.048 147.553 301.913 147.901 300.495 147.901H295.518V133.694H300.182C301.633 133.694 302.768 133.996 303.588 134.601C304.408 135.2 304.817 136.159 304.817 137.48C304.817 138.137 304.625 138.722 304.242 139.236C303.864 139.75 303.35 140.147 302.7 140.427C303.5 140.635 304.115 141.051 304.544 141.676C304.974 142.294 305.188 143.003 305.188 143.803ZM300.182 135.226H297.411V139.754H300.231C301.038 139.754 301.688 139.552 302.183 139.149C302.677 138.745 302.924 138.182 302.924 137.46C302.924 136.68 302.697 136.114 302.241 135.763C301.792 135.405 301.106 135.226 300.182 135.226ZM303.295 143.823C303.295 143.029 303.08 142.401 302.651 141.939C302.222 141.477 301.532 141.246 300.582 141.246H297.411V146.379H300.495C301.386 146.379 302.075 146.148 302.563 145.686C303.051 145.224 303.295 144.603 303.295 143.823Z" fill="white"/>
</svg>
