<svg width="542" height="253" viewBox="0 0 542 253" fill="none" xmlns="http://www.w3.org/2000/svg">
<path d="M347.402 60.1719C347.109 65.0221 345.791 69.319 343.447 73.0625C341.104 76.7734 337.832 79.6868 333.633 81.8027C329.466 83.9186 324.453 84.9766 318.594 84.9766C312.441 84.9766 307.152 83.5931 302.725 80.8262C298.33 78.0267 294.945 74.0716 292.568 68.9609C290.192 63.8177 289.004 57.7142 289.004 50.6504V46.3047C289.004 39.2409 290.225 33.1374 292.666 27.9941C295.14 22.8509 298.59 18.8796 303.018 16.0801C307.477 13.2806 312.702 11.8809 318.691 11.8809C324.681 11.8809 329.727 12.9876 333.828 15.2012C337.962 17.3822 341.152 20.377 343.398 24.1855C345.677 27.9941 347.044 32.3398 347.5 37.2227H332.168C331.875 33.056 330.736 29.8984 328.75 27.75C326.797 25.569 323.444 24.4785 318.691 24.4785C313.939 24.4785 310.391 26.2201 308.047 29.7031C305.736 33.1862 304.58 38.6875 304.58 46.207V50.6504C304.58 58.0072 305.638 63.4759 307.754 67.0566C309.902 70.6374 313.516 72.4277 318.594 72.4277C323.053 72.4277 326.341 71.4186 328.457 69.4004C330.573 67.3496 331.794 64.2734 332.119 60.1719H347.402ZM354.631 84V12.9062H376.75C383.163 12.9062 388.811 14.3385 393.693 17.2031C398.609 20.0677 402.45 24.0553 405.217 29.166C407.984 34.2767 409.367 40.2012 409.367 46.9395V49.9668C409.367 56.7376 407.984 62.6784 405.217 67.7891C402.482 72.8997 398.658 76.8874 393.742 79.752C388.827 82.584 383.13 84 376.652 84H354.631ZM376.75 25.3086H370.012V71.6465H376.652C382.284 71.6465 386.548 69.791 389.445 66.0801C392.375 62.3691 393.84 56.998 393.84 49.9668V46.8418C393.84 39.778 392.375 34.4232 389.445 30.7773C386.548 27.1315 382.316 25.3086 376.75 25.3086ZM473.871 60.1719C473.578 65.0221 472.26 69.319 469.916 73.0625C467.572 76.7734 464.301 79.6868 460.102 81.8027C455.935 83.9186 450.922 84.9766 445.062 84.9766C438.91 84.9766 433.62 83.5931 429.193 80.8262C424.799 78.0267 421.413 74.0716 419.037 68.9609C416.661 63.8177 415.473 57.7142 415.473 50.6504V46.3047C415.473 39.2409 416.693 33.1374 419.135 27.9941C421.609 22.8509 425.059 18.8796 429.486 16.0801C433.946 13.2806 439.171 11.8809 445.16 11.8809C451.15 11.8809 456.195 12.9876 460.297 15.2012C464.431 17.3822 467.621 20.377 469.867 24.1855C472.146 27.9941 473.513 32.3398 473.969 37.2227H458.637C458.344 33.056 457.204 29.8984 455.219 27.75C453.266 25.569 449.913 24.4785 445.16 24.4785C440.408 24.4785 436.859 26.2201 434.516 29.7031C432.204 33.1862 431.049 38.6875 431.049 46.207V50.6504C431.049 58.0072 432.107 63.4759 434.223 67.0566C436.371 70.6374 439.984 72.4277 445.062 72.4277C449.522 72.4277 452.81 71.4186 454.926 69.4004C457.042 67.3496 458.262 64.2734 458.588 60.1719H473.871Z" fill="#25282B"/>
<path d="M317.91 107.906C326.146 107.906 332.607 109.745 337.295 113.424C342.015 117.07 344.375 122.392 344.375 129.391C344.375 134.632 343.236 138.831 340.957 141.988C338.711 145.113 335.651 147.555 331.777 149.312L346.963 178.268V179H330.508L317.471 153.268H306.484V179H291.152V107.906H317.91ZM317.91 120.309H306.484V140.865H317.861C321.572 140.865 324.355 139.954 326.211 138.131C328.066 136.275 328.994 133.785 328.994 130.66C328.994 127.47 328.083 124.947 326.26 123.092C324.469 121.236 321.686 120.309 317.91 120.309ZM376.994 179.977C371.428 179.977 366.659 178.821 362.688 176.51C358.749 174.199 355.721 171.106 353.605 167.232C351.522 163.359 350.48 159.078 350.48 154.391V152.486C350.48 147.213 351.473 142.525 353.459 138.424C355.477 134.322 358.342 131.1 362.053 128.756C365.764 126.38 370.191 125.191 375.334 125.191C382.984 125.191 388.811 127.568 392.814 132.32C396.818 137.04 398.82 143.323 398.82 151.168V157.418H365.471C365.992 160.641 367.326 163.229 369.475 165.182C371.656 167.102 374.471 168.062 377.922 168.062C380.428 168.062 382.756 167.607 384.904 166.695C387.085 165.751 388.957 164.286 390.52 162.301L397.648 170.455C395.988 172.831 393.417 175.012 389.934 176.998C386.451 178.984 382.137 179.977 376.994 179.977ZM375.236 137.057C372.339 137.057 370.126 138.033 368.596 139.986C367.066 141.907 366.057 144.413 365.568 147.506H384.318V146.334C384.286 143.632 383.537 141.419 382.072 139.693C380.64 137.936 378.361 137.057 375.236 137.057ZM430.951 136.91H422.016V162.496C422.016 164.645 422.439 166.077 423.285 166.793C424.164 167.509 425.531 167.867 427.387 167.867C428.266 167.867 429.047 167.835 429.73 167.77C430.414 167.704 431 167.623 431.488 167.525L431.439 178.658C430.235 179.049 428.917 179.358 427.484 179.586C426.085 179.846 424.506 179.977 422.748 179.977C417.995 179.977 414.219 178.756 411.42 176.314C408.653 173.873 407.27 169.82 407.27 164.156V136.91H399.75V126.168H407.27V113.131H422.016V126.168H430.951V136.91ZM464.791 143.795C464.791 141.419 464.205 139.531 463.033 138.131C461.861 136.731 459.99 136.031 457.418 136.031C455.172 136.031 453.43 136.568 452.193 137.643C450.956 138.717 450.338 140.214 450.338 142.135H435.592C435.592 139.01 436.52 136.178 438.375 133.639C440.23 131.067 442.851 129.016 446.236 127.486C449.622 125.956 453.609 125.191 458.199 125.191C462.301 125.191 465.963 125.891 469.186 127.291C472.408 128.658 474.947 130.725 476.803 133.492C478.658 136.259 479.586 139.726 479.586 143.893V165.963C479.586 169.088 479.765 171.562 480.123 173.385C480.514 175.208 481.051 176.803 481.734 178.17V179H466.891C466.305 177.763 465.833 176.217 465.475 174.361C464.107 175.924 462.35 177.258 460.201 178.365C458.085 179.439 455.465 179.977 452.34 179.977C448.987 179.977 445.943 179.309 443.209 177.975C440.507 176.607 438.359 174.736 436.764 172.359C435.169 169.951 434.371 167.2 434.371 164.107C434.371 158.574 436.422 154.293 440.523 151.266C444.625 148.206 450.729 146.676 458.834 146.676H464.791V143.795ZM455.611 168.795C457.89 168.795 459.811 168.307 461.373 167.33C462.968 166.321 464.107 165.214 464.791 164.01V155.172H459.273C455.693 155.172 453.105 155.953 451.51 157.516C449.915 159.046 449.117 160.901 449.117 163.082C449.117 164.742 449.703 166.109 450.875 167.184C452.047 168.258 453.626 168.795 455.611 168.795ZM487.986 112.545C487.986 110.364 488.735 108.557 490.232 107.125C491.73 105.693 493.732 104.977 496.238 104.977C498.745 104.977 500.73 105.693 502.195 107.125C503.693 108.557 504.441 110.364 504.441 112.545C504.441 114.758 503.693 116.581 502.195 118.014C500.73 119.413 498.745 120.113 496.238 120.113C493.732 120.113 491.73 119.413 490.232 118.014C488.735 116.581 487.986 114.758 487.986 112.545ZM503.66 179H488.865V126.168H503.66V179ZM528.516 179H513.721V104H528.516V179Z" fill="#0055A4"/>
<path d="M303.125 230.438C303.125 232.573 302.438 234.203 301.062 235.328C299.698 236.443 297.88 237 295.609 237H287.641V214.25H295.109C297.432 214.25 299.25 214.734 300.562 215.703C301.875 216.661 302.531 218.198 302.531 220.312C302.531 221.365 302.224 222.302 301.609 223.125C301.005 223.948 300.182 224.583 299.141 225.031C300.422 225.365 301.406 226.031 302.094 227.031C302.781 228.021 303.125 229.156 303.125 230.438ZM295.109 216.703H290.672V223.953H295.188C296.479 223.953 297.521 223.63 298.312 222.984C299.104 222.339 299.5 221.438 299.5 220.281C299.5 219.031 299.135 218.125 298.406 217.562C297.688 216.99 296.589 216.703 295.109 216.703ZM300.094 230.469C300.094 229.198 299.75 228.193 299.062 227.453C298.375 226.714 297.271 226.344 295.75 226.344H290.672V234.562H295.609C297.036 234.562 298.141 234.193 298.922 233.453C299.703 232.714 300.094 231.719 300.094 230.469ZM316.578 220.094H319.688L312.906 239.609C312.708 240.161 312.411 240.766 312.016 241.422C311.62 242.089 311.089 242.656 310.422 243.125C309.755 243.594 308.911 243.828 307.891 243.828C307.661 243.828 307.37 243.797 307.016 243.734C306.661 243.672 306.406 243.62 306.25 243.578V241.25C306.333 241.26 306.464 241.276 306.641 241.297C306.828 241.318 306.958 241.328 307.031 241.328C308.01 241.328 308.776 241.125 309.328 240.719C309.88 240.312 310.328 239.589 310.672 238.547L311.297 236.828L305.281 220.094H308.469L312.656 232.719L316.578 220.094ZM339.078 228.078H333.703V237H330.672V214.25H339.078C340.797 214.25 342.25 214.547 343.438 215.141C344.625 215.734 345.526 216.552 346.141 217.594C346.755 218.635 347.062 219.833 347.062 221.188C347.062 223.385 346.375 225.083 345 226.281C343.635 227.479 341.661 228.078 339.078 228.078ZM339.078 216.703H333.703V225.641H339.078C340.839 225.641 342.104 225.229 342.875 224.406C343.646 223.573 344.031 222.51 344.031 221.219C344.031 220.438 343.859 219.703 343.516 219.016C343.182 218.328 342.651 217.771 341.922 217.344C341.203 216.917 340.255 216.703 339.078 216.703ZM359.312 237H356.312V216.703H349.031V214.25H366.609V216.703H359.312V237ZM390.828 237H377.016V214.25H380.047V234.562H390.828V237ZM403.781 225.406C403.781 224.396 403.479 223.594 402.875 223C402.281 222.396 401.401 222.094 400.234 222.094C399.151 222.094 398.276 222.365 397.609 222.906C396.943 223.448 396.609 224.073 396.609 224.781H393.688C393.688 223.969 393.964 223.182 394.516 222.422C395.068 221.651 395.844 221.021 396.844 220.531C397.854 220.031 399.042 219.781 400.406 219.781C402.25 219.781 403.76 220.25 404.938 221.188C406.115 222.125 406.703 223.542 406.703 225.438V233.312C406.703 233.875 406.75 234.474 406.844 235.109C406.948 235.745 407.099 236.292 407.297 236.75V237H404.25C404.156 236.792 404.073 236.531 404 236.219C403.938 235.906 403.885 235.578 403.844 235.234C403.302 235.807 402.625 236.297 401.812 236.703C401.01 237.109 400.089 237.312 399.047 237.312C397.901 237.312 396.896 237.094 396.031 236.656C395.177 236.208 394.51 235.604 394.031 234.844C393.562 234.083 393.328 233.24 393.328 232.312C393.328 230.49 394.016 229.109 395.391 228.172C396.766 227.224 398.615 226.75 400.938 226.75H403.781V225.406ZM399.469 234.812C400.51 234.812 401.411 234.552 402.172 234.031C402.932 233.5 403.469 232.911 403.781 232.266V228.781H401.406C399.76 228.781 398.49 229.042 397.594 229.562C396.698 230.083 396.25 230.865 396.25 231.906C396.25 232.719 396.521 233.406 397.062 233.969C397.615 234.531 398.417 234.812 399.469 234.812ZM414.172 243.5H411.25V220.094H413.906L414.062 221.938C414.635 221.24 415.328 220.708 416.141 220.344C416.953 219.969 417.891 219.781 418.953 219.781C420.37 219.781 421.568 220.141 422.547 220.859C423.526 221.578 424.271 222.589 424.781 223.891C425.292 225.182 425.547 226.688 425.547 228.406V228.734C425.547 230.38 425.292 231.849 424.781 233.141C424.271 234.432 423.526 235.453 422.547 236.203C421.578 236.943 420.396 237.312 419 237.312C417.958 237.312 417.036 237.146 416.234 236.812C415.432 236.479 414.745 236 414.172 235.375V243.5ZM422.625 228.406C422.625 227.281 422.464 226.25 422.141 225.312C421.828 224.365 421.333 223.609 420.656 223.047C419.99 222.484 419.13 222.203 418.078 222.203C417.109 222.203 416.307 222.427 415.672 222.875C415.047 223.312 414.547 223.865 414.172 224.531V232.672C414.547 233.339 415.047 233.891 415.672 234.328C416.307 234.755 417.12 234.969 418.109 234.969C419.151 234.969 420.005 234.682 420.672 234.109C421.339 233.536 421.828 232.781 422.141 231.844C422.464 230.896 422.625 229.859 422.625 228.734V228.406ZM429.25 215.594C429.25 215.135 429.391 214.745 429.672 214.422C429.964 214.099 430.391 213.938 430.953 213.938C431.516 213.938 431.943 214.099 432.234 214.422C432.536 214.745 432.688 215.135 432.688 215.594C432.688 216.042 432.536 216.427 432.234 216.75C431.943 217.062 431.516 217.219 430.953 217.219C430.391 217.219 429.964 217.062 429.672 216.75C429.391 216.427 429.25 216.042 429.25 215.594ZM432.391 237H429.469V220.094H432.391V237ZM448.641 237H445.609V214.25H448.641V237ZM462.531 237H459.531V216.703H452.25V214.25H469.828V216.703H462.531V237ZM488.688 230.438C488.688 232.573 488 234.203 486.625 235.328C485.26 236.443 483.443 237 481.172 237H473.203V214.25H480.672C482.995 214.25 484.812 214.734 486.125 215.703C487.438 216.661 488.094 218.198 488.094 220.312C488.094 221.365 487.786 222.302 487.172 223.125C486.568 223.948 485.745 224.583 484.703 225.031C485.984 225.365 486.969 226.031 487.656 227.031C488.344 228.021 488.688 229.156 488.688 230.438ZM480.672 216.703H476.234V223.953H480.75C482.042 223.953 483.083 223.63 483.875 222.984C484.667 222.339 485.062 221.438 485.062 220.281C485.062 219.031 484.698 218.125 483.969 217.562C483.25 216.99 482.151 216.703 480.672 216.703ZM485.656 230.469C485.656 229.198 485.312 228.193 484.625 227.453C483.938 226.714 482.833 226.344 481.312 226.344H476.234V234.562H481.172C482.599 234.562 483.703 234.193 484.484 233.453C485.266 232.714 485.656 231.719 485.656 230.469Z" fill="#929598"/>
<path d="M72.687 247C84.6297 247 94.3112 237.137 94.3112 224.97C94.3112 212.803 84.6297 202.939 72.687 202.939C60.7442 202.939 51.0627 212.803 51.0627 224.97C51.0627 237.137 60.7442 247 72.687 247Z" fill="#0055A4"/>
<path d="M193.275 245.792C205.376 245.792 215.185 236.199 215.185 224.366C215.185 212.532 205.376 202.939 193.275 202.939C181.174 202.939 171.365 212.532 171.365 224.366C171.365 236.199 181.174 245.792 193.275 245.792Z" fill="#0055A4"/>
<path fill-rule="evenodd" clip-rule="evenodd" d="M231.515 157.882H65.3938V63.6903L32.7319 12.8345C31.5727 11.2413 30.1124 9.89284 28.4342 8.86628C26.756 7.83972 24.8929 7.15511 22.9512 6.85155C19.0298 6.23848 15.0265 7.2147 11.822 9.56545C8.61742 11.9162 6.47411 15.4489 5.86356 19.3865C5.253 23.324 6.22521 27.3438 8.56631 30.5616L36.3711 74.3658V157.882H35.544C27.2281 157.882 20.5063 164.526 20.5063 172.74C20.5063 180.939 27.2281 187.598 35.544 187.598H231.515C239.831 187.598 246.553 180.939 246.553 172.74C246.539 170.773 246.139 168.827 245.376 167.015C244.612 165.203 243.5 163.559 242.103 162.179C240.707 160.799 239.053 159.709 237.236 158.972C235.419 158.235 233.475 157.864 231.515 157.882V157.882Z" fill="#0055A4"/>
<g clip-path="url(#clip0)">
<path d="M223.467 91.5671H204.059V115.01L196.296 109.809L188.533 115.01V91.5671H169.124C166.99 91.5671 165.243 93.3254 165.243 95.4743V142.36C165.243 144.509 166.99 146.267 169.124 146.267H223.467C225.602 146.267 227.349 144.509 227.349 142.36V95.4743C227.349 93.3254 225.602 91.5671 223.467 91.5671ZM130.308 75.9385H184.651C186.786 75.9385 188.533 74.1803 188.533 72.0313V25.1454C188.533 22.9965 186.786 21.2383 184.651 21.2383H165.243V44.6812L157.48 39.4798L149.716 44.6812V21.2383H130.308C128.173 21.2383 126.427 22.9965 126.427 25.1454V72.0313C126.427 74.1803 128.173 75.9385 130.308 75.9385ZM145.835 91.5671H126.427V115.01L118.663 109.809L110.9 115.01V91.5671H91.492C89.3571 91.5671 87.6104 93.3254 87.6104 95.4743V142.36C87.6104 144.509 89.3571 146.267 91.492 146.267H145.835C147.97 146.267 149.716 144.509 149.716 142.36V95.4743C149.716 93.3254 147.97 91.5671 145.835 91.5671Z" fill="#0055A4"/>
</g>
<defs>
<clipPath id="clip0">
<rect width="139.738" height="125.029" fill="white" transform="translate(87.6104 21.2383)"/>
</clipPath>
</defs>
</svg>
