<svg width="568" height="158" viewBox="0 0 568 158" fill="none" xmlns="http://www.w3.org/2000/svg">
<path d="M201 18.5684C201 16.3874 201.749 14.5807 203.246 13.1484C204.743 11.7161 206.745 11 209.252 11C211.758 11 213.744 11.7161 215.209 13.1484C216.706 14.5807 217.455 16.3874 217.455 18.5684C217.455 20.7819 216.706 22.6048 215.209 24.0371C213.744 25.4368 211.758 26.1367 209.252 26.1367C206.745 26.1367 204.743 25.4368 203.246 24.0371C201.749 22.6048 201 20.7819 201 18.5684Z" fill="white"/>
<path d="M201.879 85.0234H216.674V32.1914H201.879V85.0234Z" fill="white"/>
<path d="M267.256 12.9062H280.195L291.426 62.2227L300.605 12.9062H315.84L300.264 84H284.736L273.701 37.8574L262.715 84H247.188L231.562 12.9062H246.846L256.074 62.2227L267.256 12.9062Z" fill="white"/>
<path d="M346.994 48.7949C346.994 46.4186 346.408 44.5306 345.236 43.1309C344.064 41.7311 342.193 41.0312 339.621 41.0312C337.375 41.0312 335.633 41.5684 334.396 42.6426C333.16 43.7168 332.541 45.2142 332.541 47.1348H317.795C317.795 44.0098 318.723 41.1777 320.578 38.6387C322.434 36.0671 325.054 34.0163 328.439 32.4863C331.825 30.9564 335.812 30.1914 340.402 30.1914C344.504 30.1914 348.166 30.8913 351.389 32.291C354.611 33.6582 357.15 35.7253 359.006 38.4922C360.861 41.2591 361.789 44.7259 361.789 48.8926V70.9629C361.789 74.0879 361.968 76.5618 362.326 78.3848C362.717 80.2077 363.254 81.8027 363.938 83.1699V84H349.094C348.508 82.763 348.036 81.2168 347.678 79.3613C346.311 80.9238 344.553 82.2585 342.404 83.3652C340.288 84.4395 337.668 84.9766 334.543 84.9766C331.19 84.9766 328.146 84.3092 325.412 82.9746C322.71 81.6074 320.562 79.7357 318.967 77.3594C317.372 74.9505 316.574 72.1999 316.574 69.1074C316.574 63.5736 318.625 59.293 322.727 56.2656C326.828 53.2057 332.932 51.6758 341.037 51.6758H346.994V48.7949ZM337.814 73.7949C340.093 73.7949 342.014 73.3066 343.576 72.3301C345.171 71.321 346.311 70.2142 346.994 69.0098V60.1719H341.477C337.896 60.1719 335.308 60.9531 333.713 62.5156C332.118 64.0456 331.32 65.901 331.32 68.082C331.32 69.7422 331.906 71.1094 333.078 72.1836C334.25 73.2578 335.829 73.7949 337.814 73.7949Z" fill="white"/>
<path d="M385.082 84H370.336V31.168H384.203L384.691 37.4668C385.961 35.1882 387.572 33.4141 389.525 32.1445C391.479 30.8424 393.741 30.1914 396.312 30.1914C397.061 30.1914 397.842 30.2565 398.656 30.3867C399.503 30.4844 400.186 30.6309 400.707 30.8262L400.512 45.0352C399.796 44.9375 398.933 44.8561 397.924 44.791C396.947 44.6934 396.085 44.6445 395.336 44.6445C390.095 44.6445 386.677 46.3535 385.082 49.7715V84Z" fill="white"/>
<path d="M436.158 31.168H450.904V84H437.086L436.695 78.5801C435.068 80.5983 433.049 82.1771 430.641 83.3164C428.264 84.4232 425.497 84.9766 422.34 84.9766C417.132 84.9766 412.9 83.4466 409.645 80.3867C406.422 77.3268 404.811 72.3138 404.811 65.3477V31.168H419.557V65.4453C419.557 68.1471 420.224 70.084 421.559 71.2559C422.893 72.4277 424.618 73.0137 426.734 73.0137C429.176 73.0137 431.145 72.5905 432.643 71.7441C434.173 70.8978 435.344 69.7585 436.158 68.3262V31.168Z" fill="white"/>
<path d="M473.709 84H458.963V31.168H472.83L473.318 37.1738C477.062 32.5189 482.091 30.1914 488.406 30.1914C491.727 30.1914 494.64 30.8424 497.146 32.1445C499.653 33.4141 501.606 35.5299 503.006 38.4922C504.406 41.4544 505.105 45.4583 505.105 50.5039V84H490.311V50.4062C490.311 47.151 489.611 44.9701 488.211 43.8633C486.811 42.724 484.793 42.1543 482.156 42.1543C480.203 42.1543 478.527 42.5612 477.127 43.375C475.727 44.1888 474.588 45.3118 473.709 46.7441V84Z" fill="white"/>
<path d="M511.357 57.1934C511.357 51.8223 512.22 47.1185 513.945 43.082C515.703 39.013 518.193 35.8555 521.416 33.6094C524.639 31.3307 528.464 30.1914 532.891 30.1914C535.951 30.1914 538.555 30.696 540.703 31.7051C542.884 32.7142 544.723 34.1465 546.221 36.002L546.807 31.168H560.186V82.0957C560.186 86.946 559.095 91.0638 556.914 94.4492C554.766 97.8346 551.755 100.406 547.881 102.164C544.007 103.922 539.515 104.801 534.404 104.801C532.223 104.801 529.896 104.508 527.422 103.922C524.948 103.336 522.572 102.441 520.293 101.236C518.047 100.032 516.175 98.502 514.678 96.6465L521.123 87.6133C522.686 89.3711 524.541 90.7546 526.689 91.7637C528.838 92.8053 531.198 93.3262 533.77 93.3262C537.448 93.3262 540.296 92.3496 542.314 90.3965C544.365 88.4759 545.391 85.709 545.391 82.0957V79.5078C543.828 81.2331 542.005 82.584 539.922 83.5605C537.871 84.5046 535.495 84.9766 532.793 84.9766C528.398 84.9766 524.59 83.821 521.367 81.5098C518.177 79.166 515.703 75.9759 513.945 71.9395C512.22 67.903 511.357 63.3294 511.357 58.2188V57.1934ZM526.152 58.2188C526.152 62.3529 526.982 65.8522 528.643 68.7168C530.335 71.5814 532.972 73.0137 536.553 73.0137C538.701 73.0137 540.492 72.623 541.924 71.8418C543.356 71.0605 544.512 69.9701 545.391 68.5703V46.5488C543.6 43.6191 540.687 42.1543 536.65 42.1543C533.102 42.1543 530.465 43.6029 528.74 46.5C527.015 49.3646 526.152 52.929 526.152 57.1934V58.2188Z" fill="white"/>
<path d="M216.125 135.438C216.125 137.573 215.438 139.203 214.062 140.328C212.698 141.443 210.88 142 208.609 142H200.641V119.25H208.109C210.432 119.25 212.25 119.734 213.562 120.703C214.875 121.661 215.531 123.198 215.531 125.312C215.531 126.365 215.224 127.302 214.609 128.125C214.005 128.948 213.182 129.583 212.141 130.031C213.422 130.365 214.406 131.031 215.094 132.031C215.781 133.021 216.125 134.156 216.125 135.438ZM208.109 121.703H203.672V128.953H208.188C209.479 128.953 210.521 128.63 211.312 127.984C212.104 127.339 212.5 126.438 212.5 125.281C212.5 124.031 212.135 123.125 211.406 122.562C210.688 121.99 209.589 121.703 208.109 121.703ZM213.094 135.469C213.094 134.198 212.75 133.193 212.062 132.453C211.375 131.714 210.271 131.344 208.75 131.344H203.672V139.562H208.609C210.036 139.562 211.141 139.193 211.922 138.453C212.703 137.714 213.094 136.719 213.094 135.469Z" fill="white"/>
<path d="M229.578 125.094H232.688L225.906 144.609C225.708 145.161 225.411 145.766 225.016 146.422C224.62 147.089 224.089 147.656 223.422 148.125C222.755 148.594 221.911 148.828 220.891 148.828C220.661 148.828 220.37 148.797 220.016 148.734C219.661 148.672 219.406 148.62 219.25 148.578V146.25C219.333 146.26 219.464 146.276 219.641 146.297C219.828 146.318 219.958 146.328 220.031 146.328C221.01 146.328 221.776 146.125 222.328 145.719C222.88 145.312 223.328 144.589 223.672 143.547L224.297 141.828L218.281 125.094H221.469L225.656 137.719L229.578 125.094Z" fill="white"/>
<path d="M252.078 133.078H246.703V142H243.672V119.25H252.078C253.797 119.25 255.25 119.547 256.438 120.141C257.625 120.734 258.526 121.552 259.141 122.594C259.755 123.635 260.062 124.833 260.062 126.188C260.062 128.385 259.375 130.083 258 131.281C256.635 132.479 254.661 133.078 252.078 133.078ZM252.078 121.703H246.703V130.641H252.078C253.839 130.641 255.104 130.229 255.875 129.406C256.646 128.573 257.031 127.51 257.031 126.219C257.031 125.438 256.859 124.703 256.516 124.016C256.182 123.328 255.651 122.771 254.922 122.344C254.203 121.917 253.255 121.703 252.078 121.703Z" fill="white"/>
<path d="M272.312 142H269.312V121.703H262.031V119.25H279.609V121.703H272.312V142Z" fill="white"/>
<path d="M303.828 142H290.016V119.25H293.047V139.562H303.828V142Z" fill="white"/>
<path d="M316.781 130.406C316.781 129.396 316.479 128.594 315.875 128C315.281 127.396 314.401 127.094 313.234 127.094C312.151 127.094 311.276 127.365 310.609 127.906C309.943 128.448 309.609 129.073 309.609 129.781H306.688C306.688 128.969 306.964 128.182 307.516 127.422C308.068 126.651 308.844 126.021 309.844 125.531C310.854 125.031 312.042 124.781 313.406 124.781C315.25 124.781 316.76 125.25 317.938 126.188C319.115 127.125 319.703 128.542 319.703 130.438V138.312C319.703 138.875 319.75 139.474 319.844 140.109C319.948 140.745 320.099 141.292 320.297 141.75V142H317.25C317.156 141.792 317.073 141.531 317 141.219C316.938 140.906 316.885 140.578 316.844 140.234C316.302 140.807 315.625 141.297 314.812 141.703C314.01 142.109 313.089 142.312 312.047 142.312C310.901 142.312 309.896 142.094 309.031 141.656C308.177 141.208 307.51 140.604 307.031 139.844C306.562 139.083 306.328 138.24 306.328 137.312C306.328 135.49 307.016 134.109 308.391 133.172C309.766 132.224 311.615 131.75 313.938 131.75H316.781V130.406ZM312.469 139.812C313.51 139.812 314.411 139.552 315.172 139.031C315.932 138.5 316.469 137.911 316.781 137.266V133.781H314.406C312.76 133.781 311.49 134.042 310.594 134.562C309.698 135.083 309.25 135.865 309.25 136.906C309.25 137.719 309.521 138.406 310.062 138.969C310.615 139.531 311.417 139.812 312.469 139.812Z" fill="white"/>
<path d="M327.172 148.5H324.25V125.094H326.906L327.062 126.938C327.635 126.24 328.328 125.708 329.141 125.344C329.953 124.969 330.891 124.781 331.953 124.781C333.37 124.781 334.568 125.141 335.547 125.859C336.526 126.578 337.271 127.589 337.781 128.891C338.292 130.182 338.547 131.688 338.547 133.406V133.734C338.547 135.38 338.292 136.849 337.781 138.141C337.271 139.432 336.526 140.453 335.547 141.203C334.578 141.943 333.396 142.312 332 142.312C330.958 142.312 330.036 142.146 329.234 141.812C328.432 141.479 327.745 141 327.172 140.375V148.5ZM335.625 133.406C335.625 132.281 335.464 131.25 335.141 130.312C334.828 129.365 334.333 128.609 333.656 128.047C332.99 127.484 332.13 127.203 331.078 127.203C330.109 127.203 329.307 127.427 328.672 127.875C328.047 128.312 327.547 128.865 327.172 129.531V137.672C327.547 138.339 328.047 138.891 328.672 139.328C329.307 139.755 330.12 139.969 331.109 139.969C332.151 139.969 333.005 139.682 333.672 139.109C334.339 138.536 334.828 137.781 335.141 136.844C335.464 135.896 335.625 134.859 335.625 133.734V133.406Z" fill="white"/>
<path d="M342.25 120.594C342.25 120.135 342.391 119.745 342.672 119.422C342.964 119.099 343.391 118.938 343.953 118.938C344.516 118.938 344.943 119.099 345.234 119.422C345.536 119.745 345.688 120.135 345.688 120.594C345.688 121.042 345.536 121.427 345.234 121.75C344.943 122.062 344.516 122.219 343.953 122.219C343.391 122.219 342.964 122.062 342.672 121.75C342.391 121.427 342.25 121.042 342.25 120.594ZM345.391 142H342.469V125.094H345.391V142Z" fill="white"/>
<path d="M361.641 142H358.609V119.25H361.641V142Z" fill="white"/>
<path d="M375.531 142H372.531V121.703H365.25V119.25H382.828V121.703H375.531V142Z" fill="white"/>
<path d="M401.688 135.438C401.688 137.573 401 139.203 399.625 140.328C398.26 141.443 396.443 142 394.172 142H386.203V119.25H393.672C395.995 119.25 397.812 119.734 399.125 120.703C400.438 121.661 401.094 123.198 401.094 125.312C401.094 126.365 400.786 127.302 400.172 128.125C399.568 128.948 398.745 129.583 397.703 130.031C398.984 130.365 399.969 131.031 400.656 132.031C401.344 133.021 401.688 134.156 401.688 135.438ZM393.672 121.703H389.234V128.953H393.75C395.042 128.953 396.083 128.63 396.875 127.984C397.667 127.339 398.062 126.438 398.062 125.281C398.062 124.031 397.698 123.125 396.969 122.562C396.25 121.99 395.151 121.703 393.672 121.703ZM398.656 135.469C398.656 134.198 398.312 133.193 397.625 132.453C396.938 131.714 395.833 131.344 394.312 131.344H389.234V139.562H394.172C395.599 139.562 396.703 139.193 397.484 138.453C398.266 137.714 398.656 136.719 398.656 135.469Z" fill="white"/>
<g clip-path="url(#clip0)">
<path d="M78.9992 110.694H31.5991V71.0765H15.7991V134.464C15.7991 138.846 19.3295 142.387 23.6991 142.387H86.8992C91.2688 142.387 94.7992 138.846 94.7992 134.464V71.0765H78.9992V110.694ZM156.666 50.8222L135.608 19.1286C134.126 16.9249 131.658 15.6125 129.016 15.6125H28.9823C26.3407 15.6125 23.872 16.9249 22.4154 19.1286L1.35695 50.8222C-2.14867 56.0963 1.60383 63.1531 7.92383 63.1531H150.099C156.394 63.1531 160.147 56.0963 156.666 50.8222ZM126.399 138.426C126.399 140.604 128.177 142.387 130.349 142.387H138.249C140.422 142.387 142.199 140.604 142.199 138.426V71.0765H126.399V138.426Z" fill="white"/>
</g>
<defs>
<clipPath id="clip0">
<rect width="158" height="126.775" fill="white" transform="translate(0 15.6125)"/>
</clipPath>
</defs>
</svg>
