<svg width="387" height="154" viewBox="0 0 387 154" fill="none" xmlns="http://www.w3.org/2000/svg">
<path d="M232.402 60.1719C232.109 65.0221 230.791 69.319 228.447 73.0625C226.104 76.7734 222.832 79.6868 218.633 81.8027C214.466 83.9186 209.453 84.9766 203.594 84.9766C197.441 84.9766 192.152 83.5931 187.725 80.8262C183.33 78.0267 179.945 74.0716 177.568 68.9609C175.192 63.8177 174.004 57.7142 174.004 50.6504V46.3047C174.004 39.2409 175.225 33.1374 177.666 27.9941C180.14 22.8509 183.59 18.8796 188.018 16.0801C192.477 13.2806 197.702 11.8809 203.691 11.8809C209.681 11.8809 214.727 12.9876 218.828 15.2012C222.962 17.3822 226.152 20.377 228.398 24.1855C230.677 27.9941 232.044 32.3398 232.5 37.2227H217.168C216.875 33.056 215.736 29.8984 213.75 27.75C211.797 25.569 208.444 24.4785 203.691 24.4785C198.939 24.4785 195.391 26.2201 193.047 29.7031C190.736 33.1862 189.58 38.6875 189.58 46.207V50.6504C189.58 58.0072 190.638 63.4759 192.754 67.0566C194.902 70.6374 198.516 72.4277 203.594 72.4277C208.053 72.4277 211.341 71.4186 213.457 69.4004C215.573 67.3496 216.794 64.2734 217.119 60.1719H232.402ZM239.631 84V12.9062H261.75C268.163 12.9062 273.811 14.3385 278.693 17.2031C283.609 20.0677 287.45 24.0553 290.217 29.166C292.984 34.2767 294.367 40.2012 294.367 46.9395V49.9668C294.367 56.7376 292.984 62.6784 290.217 67.7891C287.482 72.8997 283.658 76.8874 278.742 79.752C273.827 82.584 268.13 84 261.652 84H239.631ZM261.75 25.3086H255.012V71.6465H261.652C267.284 71.6465 271.548 69.791 274.445 66.0801C277.375 62.3691 278.84 56.998 278.84 49.9668V46.8418C278.84 39.778 277.375 34.4232 274.445 30.7773C271.548 27.1315 267.316 25.3086 261.75 25.3086ZM358.871 60.1719C358.578 65.0221 357.26 69.319 354.916 73.0625C352.572 76.7734 349.301 79.6868 345.102 81.8027C340.935 83.9186 335.922 84.9766 330.062 84.9766C323.91 84.9766 318.62 83.5931 314.193 80.8262C309.799 78.0267 306.413 74.0716 304.037 68.9609C301.661 63.8177 300.473 57.7142 300.473 50.6504V46.3047C300.473 39.2409 301.693 33.1374 304.135 27.9941C306.609 22.8509 310.059 18.8796 314.486 16.0801C318.946 13.2806 324.171 11.8809 330.16 11.8809C336.15 11.8809 341.195 12.9876 345.297 15.2012C349.431 17.3822 352.621 20.377 354.867 24.1855C357.146 27.9941 358.513 32.3398 358.969 37.2227H343.637C343.344 33.056 342.204 29.8984 340.219 27.75C338.266 25.569 334.913 24.4785 330.16 24.4785C325.408 24.4785 321.859 26.2201 319.516 29.7031C317.204 33.1862 316.049 38.6875 316.049 46.207V50.6504C316.049 58.0072 317.107 63.4759 319.223 67.0566C321.371 70.6374 324.984 72.4277 330.062 72.4277C334.522 72.4277 337.81 71.4186 339.926 69.4004C342.042 67.3496 343.262 64.2734 343.588 60.1719H358.871Z" fill="#25282B"/>
<path fill-rule="evenodd" clip-rule="evenodd" d="M74.3936 15.183C76.0527 14.4457 77.9466 14.4457 79.6057 15.183L137.356 40.8497C139.673 41.8796 141.166 44.1775 141.166 46.7133V130.13C141.166 133.674 138.294 136.547 134.75 136.547C131.206 136.547 128.333 133.674 128.333 130.13V50.8834L76.9997 28.0685L25.6663 50.8834V130.13C25.6663 133.674 22.7935 136.547 19.2497 136.547C15.7058 136.547 12.833 133.674 12.833 130.13V46.7133C12.833 44.1775 14.3264 41.8796 16.6436 40.8497L74.3936 15.183Z" fill="#0CBCED"/>
<path fill-rule="evenodd" clip-rule="evenodd" d="M77.0001 78.7968C77.0001 75.253 79.873 72.3801 83.4168 72.3801H109.083C112.627 72.3801 115.5 75.253 115.5 78.7968V130.13C115.5 133.674 112.627 136.547 109.083 136.547H44.9168C41.373 136.547 38.5001 133.674 38.5001 130.13V91.6301C38.5001 88.0863 41.373 85.2135 44.9168 85.2135H83.4168C86.9606 85.2135 89.8335 88.0863 89.8335 91.6301C89.8335 95.174 86.9606 98.0468 83.4168 98.0468H51.3335V123.713H102.667V85.2135H83.4168C79.873 85.2135 77.0001 82.3406 77.0001 78.7968Z" fill="#ED1C24"/>
<path fill-rule="evenodd" clip-rule="evenodd" d="M55.0918 63.3054C57.4985 60.8987 60.7627 59.5466 64.1663 59.5466H76.9997C80.4033 59.5466 83.6675 60.8987 86.0742 63.3054C88.4809 65.7121 89.833 68.9763 89.833 72.38V130.13C89.833 133.674 86.9602 136.547 83.4164 136.547C79.8725 136.547 76.9997 133.674 76.9997 130.13V72.38L64.1663 72.38L64.1663 91.63C64.1663 95.1738 61.2935 98.0466 57.7497 98.0466C54.2058 98.0466 51.333 95.1738 51.333 91.63V72.38C51.333 68.9763 52.6851 65.7121 55.0918 63.3054Z" fill="#ED1C24"/>
<path d="M188.125 131.438C188.125 133.573 187.438 135.203 186.062 136.328C184.698 137.443 182.88 138 180.609 138H172.641V115.25H180.109C182.432 115.25 184.25 115.734 185.562 116.703C186.875 117.661 187.531 119.198 187.531 121.312C187.531 122.365 187.224 123.302 186.609 124.125C186.005 124.948 185.182 125.583 184.141 126.031C185.422 126.365 186.406 127.031 187.094 128.031C187.781 129.021 188.125 130.156 188.125 131.438ZM180.109 117.703H175.672V124.953H180.188C181.479 124.953 182.521 124.63 183.312 123.984C184.104 123.339 184.5 122.438 184.5 121.281C184.5 120.031 184.135 119.125 183.406 118.562C182.688 117.99 181.589 117.703 180.109 117.703ZM185.094 131.469C185.094 130.198 184.75 129.193 184.062 128.453C183.375 127.714 182.271 127.344 180.75 127.344H175.672V135.562H180.609C182.036 135.562 183.141 135.193 183.922 134.453C184.703 133.714 185.094 132.719 185.094 131.469ZM201.578 121.094H204.688L197.906 140.609C197.708 141.161 197.411 141.766 197.016 142.422C196.62 143.089 196.089 143.656 195.422 144.125C194.755 144.594 193.911 144.828 192.891 144.828C192.661 144.828 192.37 144.797 192.016 144.734C191.661 144.672 191.406 144.62 191.25 144.578V142.25C191.333 142.26 191.464 142.276 191.641 142.297C191.828 142.318 191.958 142.328 192.031 142.328C193.01 142.328 193.776 142.125 194.328 141.719C194.88 141.312 195.328 140.589 195.672 139.547L196.297 137.828L190.281 121.094H193.469L197.656 133.719L201.578 121.094ZM224.078 129.078H218.703V138H215.672V115.25H224.078C225.797 115.25 227.25 115.547 228.438 116.141C229.625 116.734 230.526 117.552 231.141 118.594C231.755 119.635 232.062 120.833 232.062 122.188C232.062 124.385 231.375 126.083 230 127.281C228.635 128.479 226.661 129.078 224.078 129.078ZM224.078 117.703H218.703V126.641H224.078C225.839 126.641 227.104 126.229 227.875 125.406C228.646 124.573 229.031 123.51 229.031 122.219C229.031 121.438 228.859 120.703 228.516 120.016C228.182 119.328 227.651 118.771 226.922 118.344C226.203 117.917 225.255 117.703 224.078 117.703ZM244.312 138H241.312V117.703H234.031V115.25H251.609V117.703H244.312V138ZM275.828 138H262.016V115.25H265.047V135.562H275.828V138ZM288.781 126.406C288.781 125.396 288.479 124.594 287.875 124C287.281 123.396 286.401 123.094 285.234 123.094C284.151 123.094 283.276 123.365 282.609 123.906C281.943 124.448 281.609 125.073 281.609 125.781H278.688C278.688 124.969 278.964 124.182 279.516 123.422C280.068 122.651 280.844 122.021 281.844 121.531C282.854 121.031 284.042 120.781 285.406 120.781C287.25 120.781 288.76 121.25 289.938 122.188C291.115 123.125 291.703 124.542 291.703 126.438V134.312C291.703 134.875 291.75 135.474 291.844 136.109C291.948 136.745 292.099 137.292 292.297 137.75V138H289.25C289.156 137.792 289.073 137.531 289 137.219C288.938 136.906 288.885 136.578 288.844 136.234C288.302 136.807 287.625 137.297 286.812 137.703C286.01 138.109 285.089 138.312 284.047 138.312C282.901 138.312 281.896 138.094 281.031 137.656C280.177 137.208 279.51 136.604 279.031 135.844C278.562 135.083 278.328 134.24 278.328 133.312C278.328 131.49 279.016 130.109 280.391 129.172C281.766 128.224 283.615 127.75 285.938 127.75H288.781V126.406ZM284.469 135.812C285.51 135.812 286.411 135.552 287.172 135.031C287.932 134.5 288.469 133.911 288.781 133.266V129.781H286.406C284.76 129.781 283.49 130.042 282.594 130.562C281.698 131.083 281.25 131.865 281.25 132.906C281.25 133.719 281.521 134.406 282.062 134.969C282.615 135.531 283.417 135.812 284.469 135.812ZM299.172 144.5H296.25V121.094H298.906L299.062 122.938C299.635 122.24 300.328 121.708 301.141 121.344C301.953 120.969 302.891 120.781 303.953 120.781C305.37 120.781 306.568 121.141 307.547 121.859C308.526 122.578 309.271 123.589 309.781 124.891C310.292 126.182 310.547 127.688 310.547 129.406V129.734C310.547 131.38 310.292 132.849 309.781 134.141C309.271 135.432 308.526 136.453 307.547 137.203C306.578 137.943 305.396 138.312 304 138.312C302.958 138.312 302.036 138.146 301.234 137.812C300.432 137.479 299.745 137 299.172 136.375V144.5ZM307.625 129.406C307.625 128.281 307.464 127.25 307.141 126.312C306.828 125.365 306.333 124.609 305.656 124.047C304.99 123.484 304.13 123.203 303.078 123.203C302.109 123.203 301.307 123.427 300.672 123.875C300.047 124.312 299.547 124.865 299.172 125.531V133.672C299.547 134.339 300.047 134.891 300.672 135.328C301.307 135.755 302.12 135.969 303.109 135.969C304.151 135.969 305.005 135.682 305.672 135.109C306.339 134.536 306.828 133.781 307.141 132.844C307.464 131.896 307.625 130.859 307.625 129.734V129.406ZM314.25 116.594C314.25 116.135 314.391 115.745 314.672 115.422C314.964 115.099 315.391 114.938 315.953 114.938C316.516 114.938 316.943 115.099 317.234 115.422C317.536 115.745 317.688 116.135 317.688 116.594C317.688 117.042 317.536 117.427 317.234 117.75C316.943 118.062 316.516 118.219 315.953 118.219C315.391 118.219 314.964 118.062 314.672 117.75C314.391 117.427 314.25 117.042 314.25 116.594ZM317.391 138H314.469V121.094H317.391V138ZM333.641 138H330.609V115.25H333.641V138ZM347.531 138H344.531V117.703H337.25V115.25H354.828V117.703H347.531V138ZM373.688 131.438C373.688 133.573 373 135.203 371.625 136.328C370.26 137.443 368.443 138 366.172 138H358.203V115.25H365.672C367.995 115.25 369.812 115.734 371.125 116.703C372.438 117.661 373.094 119.198 373.094 121.312C373.094 122.365 372.786 123.302 372.172 124.125C371.568 124.948 370.745 125.583 369.703 126.031C370.984 126.365 371.969 127.031 372.656 128.031C373.344 129.021 373.688 130.156 373.688 131.438ZM365.672 117.703H361.234V124.953H365.75C367.042 124.953 368.083 124.63 368.875 123.984C369.667 123.339 370.062 122.438 370.062 121.281C370.062 120.031 369.698 119.125 368.969 118.562C368.25 117.99 367.151 117.703 365.672 117.703ZM370.656 131.469C370.656 130.198 370.312 129.193 369.625 128.453C368.938 127.714 367.833 127.344 366.312 127.344H361.234V135.562H366.172C367.599 135.562 368.703 135.193 369.484 134.453C370.266 133.714 370.656 132.719 370.656 131.469Z" fill="#929598"/>
</svg>
