<svg width="532" height="158" viewBox="0 0 532 158" fill="none" xmlns="http://www.w3.org/2000/svg">
<path d="M231.172 12.9062L248.799 63.6387L266.377 12.9062H286.445V84H271.064V65.5918L272.578 31.8516L253.975 84H243.525L224.971 31.8516L226.484 65.5918V84H211.104V12.9062H231.172Z" fill="#0CBCED"/>
<path d="M324.24 48.7949C324.24 46.4186 323.654 44.5306 322.482 43.1309C321.311 41.7311 319.439 41.0312 316.867 41.0312C314.621 41.0312 312.88 41.5684 311.643 42.6426C310.406 43.7168 309.787 45.2142 309.787 47.1348H295.041C295.041 44.0098 295.969 41.1777 297.824 38.6387C299.68 36.0671 302.3 34.0163 305.686 32.4863C309.071 30.9564 313.059 30.1914 317.648 30.1914C321.75 30.1914 325.412 30.8913 328.635 32.291C331.857 33.6582 334.396 35.7253 336.252 38.4922C338.107 41.2591 339.035 44.7259 339.035 48.8926V70.9629C339.035 74.0879 339.214 76.5618 339.572 78.3848C339.963 80.2077 340.5 81.8027 341.184 83.1699V84H326.34C325.754 82.763 325.282 81.2168 324.924 79.3613C323.557 80.9238 321.799 82.2585 319.65 83.3652C317.535 84.4395 314.914 84.9766 311.789 84.9766C308.436 84.9766 305.393 84.3092 302.658 82.9746C299.956 81.6074 297.808 79.7357 296.213 77.3594C294.618 74.9505 293.82 72.1999 293.82 69.1074C293.82 63.5736 295.871 59.293 299.973 56.2656C304.074 53.2057 310.178 51.6758 318.283 51.6758H324.24V48.7949ZM315.061 73.7949C317.339 73.7949 319.26 73.3066 320.822 72.3301C322.417 71.321 323.557 70.2142 324.24 69.0098V60.1719H318.723C315.142 60.1719 312.554 60.9531 310.959 62.5156C309.364 64.0456 308.566 65.901 308.566 68.082C308.566 69.7422 309.152 71.1094 310.324 72.1836C311.496 73.2578 313.075 73.7949 315.061 73.7949Z" fill="#0CBCED"/>
<path d="M362.328 84H347.582V31.168H361.449L361.938 37.4668C363.207 35.1882 364.818 33.4141 366.771 32.1445C368.725 30.8424 370.987 30.1914 373.559 30.1914C374.307 30.1914 375.089 30.2565 375.902 30.3867C376.749 30.4844 377.432 30.6309 377.953 30.8262L377.758 45.0352C377.042 44.9375 376.179 44.8561 375.17 44.791C374.193 44.6934 373.331 44.6445 372.582 44.6445C367.341 44.6445 363.923 46.3535 362.328 49.7715V84Z" fill="#0CBCED"/>
<path d="M397.145 84H382.398V8.95117H397.145V49.9668L399.635 46.793L412.721 31.168H430.445L411.549 53.0918L432.008 84H415.064L402.076 63.248L397.145 68.1797V84Z" fill="#0CBCED"/>
<path d="M458.865 84.9766C453.299 84.9766 448.53 83.821 444.559 81.5098C440.62 79.1986 437.592 76.1061 435.477 72.2324C433.393 68.3587 432.352 64.0781 432.352 59.3906V57.4863C432.352 52.2129 433.344 47.5254 435.33 43.4238C437.348 39.3223 440.213 36.0996 443.924 33.7559C447.635 31.3796 452.062 30.1914 457.205 30.1914C464.855 30.1914 470.682 32.5677 474.686 37.3203C478.689 42.0404 480.691 48.3229 480.691 56.168V62.418H447.342C447.863 65.6406 449.197 68.2285 451.346 70.1816C453.527 72.1022 456.342 73.0625 459.793 73.0625C462.299 73.0625 464.627 72.6068 466.775 71.6953C468.956 70.7513 470.828 69.2865 472.391 67.3008L479.52 75.4551C477.859 77.8314 475.288 80.0124 471.805 81.998C468.322 83.9837 464.008 84.9766 458.865 84.9766ZM457.107 42.0566C454.21 42.0566 451.997 43.0332 450.467 44.9863C448.937 46.9069 447.928 49.4134 447.439 52.5059H466.189V51.334C466.157 48.6322 465.408 46.4186 463.943 44.6934C462.511 42.9355 460.232 42.0566 457.107 42.0566Z" fill="#0CBCED"/>
<path d="M512.822 41.9102H503.887V67.4961C503.887 69.6445 504.31 71.0768 505.156 71.793C506.035 72.5091 507.402 72.8672 509.258 72.8672C510.137 72.8672 510.918 72.8346 511.602 72.7695C512.285 72.7044 512.871 72.623 513.359 72.5254L513.311 83.6582C512.106 84.0488 510.788 84.3581 509.355 84.5859C507.956 84.8464 506.377 84.9766 504.619 84.9766C499.867 84.9766 496.09 83.7559 493.291 81.3145C490.524 78.873 489.141 74.8203 489.141 69.1562V41.9102H481.621V31.168H489.141V18.1309H503.887V31.168H512.822V41.9102Z" fill="#0CBCED"/>
<path d="M192.125 135.438C192.125 137.573 191.438 139.203 190.062 140.328C188.698 141.443 186.88 142 184.609 142H176.641V119.25H184.109C186.432 119.25 188.25 119.734 189.562 120.703C190.875 121.661 191.531 123.198 191.531 125.312C191.531 126.365 191.224 127.302 190.609 128.125C190.005 128.948 189.182 129.583 188.141 130.031C189.422 130.365 190.406 131.031 191.094 132.031C191.781 133.021 192.125 134.156 192.125 135.438ZM184.109 121.703H179.672V128.953H184.188C185.479 128.953 186.521 128.63 187.312 127.984C188.104 127.339 188.5 126.438 188.5 125.281C188.5 124.031 188.135 123.125 187.406 122.562C186.688 121.99 185.589 121.703 184.109 121.703ZM189.094 135.469C189.094 134.198 188.75 133.193 188.062 132.453C187.375 131.714 186.271 131.344 184.75 131.344H179.672V139.562H184.609C186.036 139.562 187.141 139.193 187.922 138.453C188.703 137.714 189.094 136.719 189.094 135.469Z" fill="#929598"/>
<path d="M205.578 125.094H208.688L201.906 144.609C201.708 145.161 201.411 145.766 201.016 146.422C200.62 147.089 200.089 147.656 199.422 148.125C198.755 148.594 197.911 148.828 196.891 148.828C196.661 148.828 196.37 148.797 196.016 148.734C195.661 148.672 195.406 148.62 195.25 148.578V146.25C195.333 146.26 195.464 146.276 195.641 146.297C195.828 146.318 195.958 146.328 196.031 146.328C197.01 146.328 197.776 146.125 198.328 145.719C198.88 145.312 199.328 144.589 199.672 143.547L200.297 141.828L194.281 125.094H197.469L201.656 137.719L205.578 125.094Z" fill="#929598"/>
<path d="M228.078 133.078H222.703V142H219.672V119.25H228.078C229.797 119.25 231.25 119.547 232.438 120.141C233.625 120.734 234.526 121.552 235.141 122.594C235.755 123.635 236.062 124.833 236.062 126.188C236.062 128.385 235.375 130.083 234 131.281C232.635 132.479 230.661 133.078 228.078 133.078ZM228.078 121.703H222.703V130.641H228.078C229.839 130.641 231.104 130.229 231.875 129.406C232.646 128.573 233.031 127.51 233.031 126.219C233.031 125.438 232.859 124.703 232.516 124.016C232.182 123.328 231.651 122.771 230.922 122.344C230.203 121.917 229.255 121.703 228.078 121.703Z" fill="#929598"/>
<path d="M248.312 142H245.312V121.703H238.031V119.25H255.609V121.703H248.312V142Z" fill="#929598"/>
<path d="M279.828 142H266.016V119.25H269.047V139.562H279.828V142Z" fill="#929598"/>
<path d="M292.781 130.406C292.781 129.396 292.479 128.594 291.875 128C291.281 127.396 290.401 127.094 289.234 127.094C288.151 127.094 287.276 127.365 286.609 127.906C285.943 128.448 285.609 129.073 285.609 129.781H282.688C282.688 128.969 282.964 128.182 283.516 127.422C284.068 126.651 284.844 126.021 285.844 125.531C286.854 125.031 288.042 124.781 289.406 124.781C291.25 124.781 292.76 125.25 293.938 126.188C295.115 127.125 295.703 128.542 295.703 130.438V138.312C295.703 138.875 295.75 139.474 295.844 140.109C295.948 140.745 296.099 141.292 296.297 141.75V142H293.25C293.156 141.792 293.073 141.531 293 141.219C292.938 140.906 292.885 140.578 292.844 140.234C292.302 140.807 291.625 141.297 290.812 141.703C290.01 142.109 289.089 142.312 288.047 142.312C286.901 142.312 285.896 142.094 285.031 141.656C284.177 141.208 283.51 140.604 283.031 139.844C282.562 139.083 282.328 138.24 282.328 137.312C282.328 135.49 283.016 134.109 284.391 133.172C285.766 132.224 287.615 131.75 289.938 131.75H292.781V130.406ZM288.469 139.812C289.51 139.812 290.411 139.552 291.172 139.031C291.932 138.5 292.469 137.911 292.781 137.266V133.781H290.406C288.76 133.781 287.49 134.042 286.594 134.562C285.698 135.083 285.25 135.865 285.25 136.906C285.25 137.719 285.521 138.406 286.062 138.969C286.615 139.531 287.417 139.812 288.469 139.812Z" fill="#929598"/>
<path d="M303.172 148.5H300.25V125.094H302.906L303.062 126.938C303.635 126.24 304.328 125.708 305.141 125.344C305.953 124.969 306.891 124.781 307.953 124.781C309.37 124.781 310.568 125.141 311.547 125.859C312.526 126.578 313.271 127.589 313.781 128.891C314.292 130.182 314.547 131.688 314.547 133.406V133.734C314.547 135.38 314.292 136.849 313.781 138.141C313.271 139.432 312.526 140.453 311.547 141.203C310.578 141.943 309.396 142.312 308 142.312C306.958 142.312 306.036 142.146 305.234 141.812C304.432 141.479 303.745 141 303.172 140.375V148.5ZM311.625 133.406C311.625 132.281 311.464 131.25 311.141 130.312C310.828 129.365 310.333 128.609 309.656 128.047C308.99 127.484 308.13 127.203 307.078 127.203C306.109 127.203 305.307 127.427 304.672 127.875C304.047 128.312 303.547 128.865 303.172 129.531V137.672C303.547 138.339 304.047 138.891 304.672 139.328C305.307 139.755 306.12 139.969 307.109 139.969C308.151 139.969 309.005 139.682 309.672 139.109C310.339 138.536 310.828 137.781 311.141 136.844C311.464 135.896 311.625 134.859 311.625 133.734V133.406Z" fill="#929598"/>
<path d="M318.25 120.594C318.25 120.135 318.391 119.745 318.672 119.422C318.964 119.099 319.391 118.938 319.953 118.938C320.516 118.938 320.943 119.099 321.234 119.422C321.536 119.745 321.688 120.135 321.688 120.594C321.688 121.042 321.536 121.427 321.234 121.75C320.943 122.062 320.516 122.219 319.953 122.219C319.391 122.219 318.964 122.062 318.672 121.75C318.391 121.427 318.25 121.042 318.25 120.594ZM321.391 142H318.469V125.094H321.391V142Z" fill="#929598"/>
<path d="M337.641 142H334.609V119.25H337.641V142Z" fill="#929598"/>
<path d="M351.531 142H348.531V121.703H341.25V119.25H358.828V121.703H351.531V142Z" fill="#929598"/>
<path d="M377.688 135.438C377.688 137.573 377 139.203 375.625 140.328C374.26 141.443 372.443 142 370.172 142H362.203V119.25H369.672C371.995 119.25 373.812 119.734 375.125 120.703C376.438 121.661 377.094 123.198 377.094 125.312C377.094 126.365 376.786 127.302 376.172 128.125C375.568 128.948 374.745 129.583 373.703 130.031C374.984 130.365 375.969 131.031 376.656 132.031C377.344 133.021 377.688 134.156 377.688 135.438ZM369.672 121.703H365.234V128.953H369.75C371.042 128.953 372.083 128.63 372.875 127.984C373.667 127.339 374.062 126.438 374.062 125.281C374.062 124.031 373.698 123.125 372.969 122.562C372.25 121.99 371.151 121.703 369.672 121.703ZM374.656 135.469C374.656 134.198 374.312 133.193 373.625 132.453C372.938 131.714 371.833 131.344 370.312 131.344H365.234V139.562H370.172C371.599 139.562 372.703 139.193 373.484 138.453C374.266 137.714 374.656 136.719 374.656 135.469Z" fill="#929598"/>
<path d="M118.5 36.3775H105.334C105.334 21.8284 93.5494 10.0442 79.0002 10.0442C64.451 10.0442 52.6669 21.8284 52.6669 36.3775H39.5002C32.2585 36.3775 26.3335 42.3025 26.3335 49.5442V128.544C26.3335 135.786 32.2585 141.711 39.5002 141.711H118.5C125.742 141.711 131.667 135.786 131.667 128.544V49.5442C131.667 42.3025 125.742 36.3775 118.5 36.3775ZM65.8335 62.7109C65.8335 66.3317 62.871 69.2942 59.2502 69.2942C55.6294 69.2942 52.6669 66.3317 52.6669 62.7109V49.5442H65.8335V62.7109ZM79.0002 23.2109C86.2419 23.2109 92.1669 29.1359 92.1669 36.3775H65.8335C65.8335 29.1359 71.7585 23.2109 79.0002 23.2109ZM105.334 62.7109C105.334 66.3317 102.371 69.2942 98.7502 69.2942C95.1294 69.2942 92.1669 66.3317 92.1669 62.7109V49.5442H105.334V62.7109Z" fill="#0CBCED"/>
<path d="M177 18.5684C177 16.3874 177.749 14.5807 179.246 13.1484C180.743 11.7161 182.745 11 185.252 11C187.758 11 189.744 11.7161 191.209 13.1484C192.706 14.5807 193.455 16.3874 193.455 18.5684C193.455 20.7819 192.706 22.6048 191.209 24.0371C189.744 25.4368 187.758 26.1367 185.252 26.1367C182.745 26.1367 180.743 25.4368 179.246 24.0371C177.749 22.6048 177 20.7819 177 18.5684Z" fill="#ED1C24"/>
<path d="M177.879 85.0234H192.674V32.1914H177.879V85.0234Z" fill="#25282B"/>
</svg>
