<svg width="542" height="253" viewBox="0 0 542 253" fill="none" xmlns="http://www.w3.org/2000/svg">
<path d="M347.402 60.1719C347.109 65.0221 345.791 69.319 343.447 73.0625C341.104 76.7734 337.832 79.6868 333.633 81.8027C329.466 83.9186 324.453 84.9766 318.594 84.9766C312.441 84.9766 307.152 83.5931 302.725 80.8262C298.33 78.0267 294.945 74.0716 292.568 68.9609C290.192 63.8177 289.004 57.7142 289.004 50.6504V46.3047C289.004 39.2409 290.225 33.1374 292.666 27.9941C295.14 22.8509 298.59 18.8796 303.018 16.0801C307.477 13.2806 312.702 11.8809 318.691 11.8809C324.681 11.8809 329.727 12.9876 333.828 15.2012C337.962 17.3822 341.152 20.377 343.398 24.1855C345.677 27.9941 347.044 32.3398 347.5 37.2227H332.168C331.875 33.056 330.736 29.8984 328.75 27.75C326.797 25.569 323.444 24.4785 318.691 24.4785C313.939 24.4785 310.391 26.2201 308.047 29.7031C305.736 33.1862 304.58 38.6875 304.58 46.207V50.6504C304.58 58.0072 305.638 63.4759 307.754 67.0566C309.902 70.6374 313.516 72.4277 318.594 72.4277C323.053 72.4277 326.341 71.4186 328.457 69.4004C330.573 67.3496 331.794 64.2734 332.119 60.1719H347.402Z" fill="#191715"/>
<path d="M354.631 84V12.9062H376.75C383.163 12.9062 388.811 14.3385 393.693 17.2031C398.609 20.0677 402.45 24.0553 405.217 29.166C407.984 34.2767 409.367 40.2012 409.367 46.9395V49.9668C409.367 56.7376 407.984 62.6784 405.217 67.7891C402.482 72.8997 398.658 76.8874 393.742 79.752C388.827 82.584 383.13 84 376.652 84H354.631ZM376.75 25.3086H370.012V71.6465H376.652C382.284 71.6465 386.548 69.791 389.445 66.0801C392.375 62.3691 393.84 56.998 393.84 49.9668V46.8418C393.84 39.778 392.375 34.4232 389.445 30.7773C386.548 27.1315 382.316 25.3086 376.75 25.3086Z" fill="#191715"/>
<path d="M473.871 60.1719C473.578 65.0221 472.26 69.319 469.916 73.0625C467.572 76.7734 464.301 79.6868 460.102 81.8027C455.935 83.9186 450.922 84.9766 445.062 84.9766C438.91 84.9766 433.62 83.5931 429.193 80.8262C424.799 78.0267 421.413 74.0716 419.037 68.9609C416.661 63.8177 415.473 57.7142 415.473 50.6504V46.3047C415.473 39.2409 416.693 33.1374 419.135 27.9941C421.609 22.8509 425.059 18.8796 429.486 16.0801C433.946 13.2806 439.171 11.8809 445.16 11.8809C451.15 11.8809 456.195 12.9876 460.297 15.2012C464.431 17.3822 467.621 20.377 469.867 24.1855C472.146 27.9941 473.513 32.3398 473.969 37.2227H458.637C458.344 33.056 457.204 29.8984 455.219 27.75C453.266 25.569 449.913 24.4785 445.16 24.4785C440.408 24.4785 436.859 26.2201 434.516 29.7031C432.204 33.1862 431.049 38.6875 431.049 46.207V50.6504C431.049 58.0072 432.107 63.4759 434.223 67.0566C436.371 70.6374 439.984 72.4277 445.062 72.4277C449.522 72.4277 452.81 71.4186 454.926 69.4004C457.042 67.3496 458.262 64.2734 458.588 60.1719H473.871Z" fill="#191715"/>
<path d="M344.473 158.004C344.473 164.938 342.243 170.178 337.783 173.727C333.324 177.242 326.927 179 318.594 179H291.104V107.906H316.25C324.616 107.906 331.159 109.501 335.879 112.691C340.599 115.882 342.959 120.797 342.959 127.438C342.959 130.628 342.161 133.59 340.566 136.324C338.971 139.026 336.416 141.077 332.9 142.477C337.035 143.518 339.997 145.52 341.787 148.482C343.577 151.445 344.473 154.618 344.473 158.004ZM316.25 120.309H306.484V137.545H316.25C323.835 137.545 327.627 134.729 327.627 129.098C327.627 125.973 326.715 123.727 324.893 122.359C323.07 120.992 320.189 120.309 316.25 120.309ZM329.189 157.857C329.189 154.895 328.424 152.551 326.895 150.826C325.365 149.101 322.809 148.238 319.229 148.238H306.484V166.646H318.594C322.272 166.646 324.958 165.8 326.65 164.107C328.343 162.415 329.189 160.331 329.189 157.857Z" fill="#191715"/>
<path d="M383.342 126.168H398.088V179H384.27L383.879 173.58C382.251 175.598 380.233 177.177 377.824 178.316C375.448 179.423 372.681 179.977 369.523 179.977C364.315 179.977 360.083 178.447 356.828 175.387C353.605 172.327 351.994 167.314 351.994 160.348V126.168H366.74V160.445C366.74 163.147 367.408 165.084 368.742 166.256C370.077 167.428 371.802 168.014 373.918 168.014C376.359 168.014 378.329 167.59 379.826 166.744C381.356 165.898 382.528 164.758 383.342 163.326V126.168Z" fill="#191715"/>
<path d="M422.016 179H407.221V104H422.016V179Z" fill="#191715"/>
<path d="M446.09 179H431.344V103.951H446.09V144.967L448.58 141.793L461.666 126.168H479.391L460.494 148.092L480.953 179H464.01L451.021 158.248L446.09 163.18V179Z" fill="#191715"/>
<path d="M512.596 126.168H528.367L507.273 186.91C506.655 188.668 505.727 190.589 504.49 192.672C503.286 194.788 501.544 196.594 499.266 198.092C497.02 199.589 494.008 200.338 490.232 200.338C488.865 200.338 487.758 200.257 486.912 200.094C486.066 199.964 485.04 199.736 483.836 199.41V188.277C484.52 188.31 485.236 188.326 485.984 188.326C488.719 188.326 490.721 187.887 491.99 187.008C493.292 186.161 494.269 184.827 494.92 183.004L496.385 179.195L477.928 126.168H493.797L503.172 158.004L512.596 126.168Z" fill="#191715"/>
<path fill-rule="evenodd" clip-rule="evenodd" d="M122.218 24.9435C124.944 23.7321 128.055 23.7321 130.781 24.9435L225.656 67.1101C229.463 68.8021 231.916 72.5773 231.916 76.7432V213.785C231.916 219.607 227.196 224.327 221.374 224.327C215.552 224.327 210.833 219.607 210.833 213.785V83.594L126.499 46.1125L42.1662 83.594V213.785C42.1662 219.607 37.4465 224.327 31.6245 224.327C25.8025 224.327 21.0828 219.607 21.0828 213.785V76.7432C21.0828 72.5773 23.5362 68.8021 27.3431 67.1101L122.218 24.9435ZM147.583 118.91V118.91C147.583 113.318 145.362 107.955 141.408 104.001C137.454 100.047 132.091 97.8262 126.499 97.8262H105.416C99.8245 97.8262 94.4619 100.047 90.508 104.001C86.5541 107.955 84.3328 113.318 84.3328 118.91V139.993H73.792C67.97 139.993 63.2503 144.713 63.2503 150.535V213.785C63.2503 219.607 67.97 224.327 73.792 224.327H179.209C185.031 224.327 189.75 219.607 189.75 213.785V129.452C189.75 123.63 185.031 118.91 179.209 118.91H147.583ZM147.583 150.403V139.993H168.667V203.243H147.583V150.667C147.583 150.623 147.584 150.579 147.584 150.535C147.584 150.491 147.583 150.447 147.583 150.403ZM126.499 139.993V118.91H105.416V139.993H126.499ZM126.499 161.077V203.243H84.3336V161.077H126.499Z" fill="#191715"/>
<path d="M303.125 230.438C303.125 232.573 302.438 234.203 301.062 235.328C299.698 236.443 297.88 237 295.609 237H287.641V214.25H295.109C297.432 214.25 299.25 214.734 300.562 215.703C301.875 216.661 302.531 218.198 302.531 220.312C302.531 221.365 302.224 222.302 301.609 223.125C301.005 223.948 300.182 224.583 299.141 225.031C300.422 225.365 301.406 226.031 302.094 227.031C302.781 228.021 303.125 229.156 303.125 230.438ZM295.109 216.703H290.672V223.953H295.188C296.479 223.953 297.521 223.63 298.312 222.984C299.104 222.339 299.5 221.438 299.5 220.281C299.5 219.031 299.135 218.125 298.406 217.562C297.688 216.99 296.589 216.703 295.109 216.703ZM300.094 230.469C300.094 229.198 299.75 228.193 299.062 227.453C298.375 226.714 297.271 226.344 295.75 226.344H290.672V234.562H295.609C297.036 234.562 298.141 234.193 298.922 233.453C299.703 232.714 300.094 231.719 300.094 230.469Z" fill="#191715"/>
<path d="M316.578 220.094H319.688L312.906 239.609C312.708 240.161 312.411 240.766 312.016 241.422C311.62 242.089 311.089 242.656 310.422 243.125C309.755 243.594 308.911 243.828 307.891 243.828C307.661 243.828 307.37 243.797 307.016 243.734C306.661 243.672 306.406 243.62 306.25 243.578V241.25C306.333 241.26 306.464 241.276 306.641 241.297C306.828 241.318 306.958 241.328 307.031 241.328C308.01 241.328 308.776 241.125 309.328 240.719C309.88 240.312 310.328 239.589 310.672 238.547L311.297 236.828L305.281 220.094H308.469L312.656 232.719L316.578 220.094Z" fill="#191715"/>
<path d="M339.078 228.078H333.703V237H330.672V214.25H339.078C340.797 214.25 342.25 214.547 343.438 215.141C344.625 215.734 345.526 216.552 346.141 217.594C346.755 218.635 347.062 219.833 347.062 221.188C347.062 223.385 346.375 225.083 345 226.281C343.635 227.479 341.661 228.078 339.078 228.078ZM339.078 216.703H333.703V225.641H339.078C340.839 225.641 342.104 225.229 342.875 224.406C343.646 223.573 344.031 222.51 344.031 221.219C344.031 220.438 343.859 219.703 343.516 219.016C343.182 218.328 342.651 217.771 341.922 217.344C341.203 216.917 340.255 216.703 339.078 216.703Z" fill="#191715"/>
<path d="M359.312 237H356.312V216.703H349.031V214.25H366.609V216.703H359.312V237Z" fill="#191715"/>
<path d="M390.828 237H377.016V214.25H380.047V234.562H390.828V237Z" fill="#191715"/>
<path d="M403.781 225.406C403.781 224.396 403.479 223.594 402.875 223C402.281 222.396 401.401 222.094 400.234 222.094C399.151 222.094 398.276 222.365 397.609 222.906C396.943 223.448 396.609 224.073 396.609 224.781H393.688C393.688 223.969 393.964 223.182 394.516 222.422C395.068 221.651 395.844 221.021 396.844 220.531C397.854 220.031 399.042 219.781 400.406 219.781C402.25 219.781 403.76 220.25 404.938 221.188C406.115 222.125 406.703 223.542 406.703 225.438V233.312C406.703 233.875 406.75 234.474 406.844 235.109C406.948 235.745 407.099 236.292 407.297 236.75V237H404.25C404.156 236.792 404.073 236.531 404 236.219C403.938 235.906 403.885 235.578 403.844 235.234C403.302 235.807 402.625 236.297 401.812 236.703C401.01 237.109 400.089 237.312 399.047 237.312C397.901 237.312 396.896 237.094 396.031 236.656C395.177 236.208 394.51 235.604 394.031 234.844C393.562 234.083 393.328 233.24 393.328 232.312C393.328 230.49 394.016 229.109 395.391 228.172C396.766 227.224 398.615 226.75 400.938 226.75H403.781V225.406ZM399.469 234.812C400.51 234.812 401.411 234.552 402.172 234.031C402.932 233.5 403.469 232.911 403.781 232.266V228.781H401.406C399.76 228.781 398.49 229.042 397.594 229.562C396.698 230.083 396.25 230.865 396.25 231.906C396.25 232.719 396.521 233.406 397.062 233.969C397.615 234.531 398.417 234.812 399.469 234.812Z" fill="#191715"/>
<path d="M414.172 243.5H411.25V220.094H413.906L414.062 221.938C414.635 221.24 415.328 220.708 416.141 220.344C416.953 219.969 417.891 219.781 418.953 219.781C420.37 219.781 421.568 220.141 422.547 220.859C423.526 221.578 424.271 222.589 424.781 223.891C425.292 225.182 425.547 226.688 425.547 228.406V228.734C425.547 230.38 425.292 231.849 424.781 233.141C424.271 234.432 423.526 235.453 422.547 236.203C421.578 236.943 420.396 237.312 419 237.312C417.958 237.312 417.036 237.146 416.234 236.812C415.432 236.479 414.745 236 414.172 235.375V243.5ZM422.625 228.406C422.625 227.281 422.464 226.25 422.141 225.312C421.828 224.365 421.333 223.609 420.656 223.047C419.99 222.484 419.13 222.203 418.078 222.203C417.109 222.203 416.307 222.427 415.672 222.875C415.047 223.312 414.547 223.865 414.172 224.531V232.672C414.547 233.339 415.047 233.891 415.672 234.328C416.307 234.755 417.12 234.969 418.109 234.969C419.151 234.969 420.005 234.682 420.672 234.109C421.339 233.536 421.828 232.781 422.141 231.844C422.464 230.896 422.625 229.859 422.625 228.734V228.406Z" fill="#191715"/>
<path d="M429.25 215.594C429.25 215.135 429.391 214.745 429.672 214.422C429.964 214.099 430.391 213.938 430.953 213.938C431.516 213.938 431.943 214.099 432.234 214.422C432.536 214.745 432.688 215.135 432.688 215.594C432.688 216.042 432.536 216.427 432.234 216.75C431.943 217.062 431.516 217.219 430.953 217.219C430.391 217.219 429.964 217.062 429.672 216.75C429.391 216.427 429.25 216.042 429.25 215.594ZM432.391 237H429.469V220.094H432.391V237Z" fill="#191715"/>
<path d="M448.641 237H445.609V214.25H448.641V237Z" fill="#191715"/>
<path d="M462.531 237H459.531V216.703H452.25V214.25H469.828V216.703H462.531V237Z" fill="#191715"/>
<path d="M488.688 230.438C488.688 232.573 488 234.203 486.625 235.328C485.26 236.443 483.443 237 481.172 237H473.203V214.25H480.672C482.995 214.25 484.812 214.734 486.125 215.703C487.438 216.661 488.094 218.198 488.094 220.312C488.094 221.365 487.786 222.302 487.172 223.125C486.568 223.948 485.745 224.583 484.703 225.031C485.984 225.365 486.969 226.031 487.656 227.031C488.344 228.021 488.688 229.156 488.688 230.438ZM480.672 216.703H476.234V223.953H480.75C482.042 223.953 483.083 223.63 483.875 222.984C484.667 222.339 485.062 221.438 485.062 220.281C485.062 219.031 484.698 218.125 483.969 217.562C483.25 216.99 482.151 216.703 480.672 216.703ZM485.656 230.469C485.656 229.198 485.312 228.193 484.625 227.453C483.938 226.714 482.833 226.344 481.312 226.344H476.234V234.562H481.172C482.599 234.562 483.703 234.193 484.484 233.453C485.266 232.714 485.656 231.719 485.656 230.469Z" fill="#191715"/>
</svg>
