<svg width="441" height="158" viewBox="0 0 441 158" fill="none" xmlns="http://www.w3.org/2000/svg">
<path d="M216.955 38.2413C216.772 41.2703 215.949 43.9537 214.485 46.2915C213.021 48.609 210.978 50.4285 208.356 51.7499C205.754 53.0712 202.623 53.7319 198.964 53.7319C195.122 53.7319 191.818 52.868 189.053 51.14C186.309 49.3917 184.195 46.9217 182.711 43.7301C181.227 40.5181 180.485 36.7064 180.485 32.295V29.5811C180.485 25.1697 181.247 21.3581 182.772 18.1461C184.317 14.9341 186.472 12.454 189.236 10.7057C192.022 8.95739 195.284 8.08324 199.025 8.08324C202.765 8.08324 205.916 8.77442 208.478 10.1568C211.06 11.5188 213.052 13.3891 214.455 15.7676C215.878 18.1461 216.731 20.86 217.016 23.9093H207.441C207.258 21.3072 206.547 19.3353 205.307 17.9936C204.087 16.6316 201.993 15.9506 199.025 15.9506C196.057 15.9506 193.841 17.0382 192.377 19.2134C190.934 21.3886 190.212 24.8241 190.212 29.5201V32.295C190.212 36.8894 190.873 40.3047 192.194 42.5408C193.536 44.777 195.793 45.8951 198.964 45.8951C201.749 45.8951 203.802 45.2649 205.124 44.0045C206.445 42.7238 207.207 40.8027 207.411 38.2413H216.955ZM221.469 53.1221V8.7236H235.283C239.288 8.7236 242.815 9.61808 245.864 11.407C248.934 13.196 251.333 15.6863 253.06 18.8779C254.788 22.0696 255.652 25.7694 255.652 29.9775V31.8681C255.652 36.0966 254.788 39.8066 253.06 42.9982C251.353 46.1899 248.964 48.6802 245.895 50.4691C242.825 52.2378 239.267 53.1221 235.222 53.1221H221.469ZM235.283 16.4689H231.075V45.4072H235.222C238.739 45.4072 241.402 44.2485 243.211 41.931C245.041 39.6135 245.956 36.2592 245.956 31.8681V29.9166C245.956 25.5052 245.041 22.1611 243.211 19.8842C241.402 17.6074 238.759 16.4689 235.283 16.4689ZM295.935 38.2413C295.753 41.2703 294.929 43.9537 293.466 46.2915C292.002 48.609 289.959 50.4285 287.336 51.7499C284.734 53.0712 281.604 53.7319 277.944 53.7319C274.102 53.7319 270.799 52.868 268.034 51.14C265.29 49.3917 263.175 46.9217 261.691 43.7301C260.207 40.5181 259.465 36.7064 259.465 32.295V29.5811C259.465 25.1697 260.228 21.3581 261.752 18.1461C263.297 14.9341 265.452 12.454 268.217 10.7057C271.002 8.95739 274.265 8.08324 278.005 8.08324C281.746 8.08324 284.897 8.77442 287.458 10.1568C290.04 11.5188 292.032 13.3891 293.435 15.7676C294.858 18.1461 295.712 20.86 295.996 23.9093H286.422C286.239 21.3072 285.527 19.3353 284.287 17.9936C283.067 16.6316 280.973 15.9506 278.005 15.9506C275.037 15.9506 272.821 17.0382 271.358 19.2134C269.914 21.3886 269.193 24.8241 269.193 29.5201V32.295C269.193 36.8894 269.853 40.3047 271.175 42.5408C272.517 44.777 274.773 45.8951 277.944 45.8951C280.729 45.8951 282.783 45.2649 284.104 44.0045C285.425 42.7238 286.188 40.8027 286.391 38.2413H295.935Z" fill="#25282B"/>
<path d="M199.269 96.615H191.401V112.075H181.796V67.6767H199.269C202.786 67.6767 205.794 68.3171 208.295 69.5978C210.816 70.8785 212.747 72.637 214.089 74.8732C215.451 77.089 216.132 79.62 216.132 82.4661C216.132 86.7758 214.638 90.2114 211.649 92.7728C208.661 95.3343 204.534 96.615 199.269 96.615ZM199.269 75.4221H191.401V88.9002H199.269C201.79 88.9002 203.609 88.3106 204.727 87.1316C205.845 85.9321 206.404 84.3973 206.404 82.527C206.404 80.6771 205.845 79.0305 204.727 77.5871C203.609 76.1437 201.79 75.4221 199.269 75.4221ZM235.862 112.685C232.386 112.685 229.408 111.963 226.928 110.52C224.468 109.077 222.577 107.145 221.256 104.726C219.955 102.307 219.304 99.6339 219.304 96.7065V95.5173C219.304 92.224 219.924 89.2966 221.164 86.7351C222.425 84.1737 224.214 82.1611 226.531 80.6974C228.849 79.2134 231.613 78.4714 234.825 78.4714C239.603 78.4714 243.242 79.9554 245.742 82.9235C248.243 85.8712 249.493 89.7946 249.493 94.6939V98.5971H228.666C228.991 100.61 229.824 102.226 231.166 103.446C232.528 104.645 234.287 105.245 236.442 105.245C238.007 105.245 239.46 104.96 240.802 104.391C242.164 103.801 243.333 102.887 244.309 101.646L248.761 106.739C247.724 108.223 246.118 109.585 243.943 110.825C241.768 112.065 239.074 112.685 235.862 112.685ZM234.764 85.8813C232.955 85.8813 231.573 86.4912 230.617 87.7109C229.662 88.9103 229.032 90.4757 228.727 92.4069H240.436V91.6751C240.416 89.9878 239.948 88.6054 239.033 87.528C238.139 86.4302 236.716 85.8813 234.764 85.8813ZM262.271 112.075H253.062V79.0813H261.722L262.027 82.6795C263.104 81.3581 264.426 80.3315 265.991 79.5997C267.577 78.8475 269.386 78.4714 271.419 78.4714C273.37 78.4714 275.098 78.8678 276.603 79.6607C278.107 80.4535 279.276 81.7139 280.109 83.4418C281.166 81.8968 282.508 80.6873 284.135 79.8131C285.781 78.9186 287.712 78.4714 289.928 78.4714C293.1 78.4714 295.651 79.4167 297.582 81.3073C299.513 83.1979 300.479 86.4709 300.479 91.1262V112.075H291.209V91.0957C291.209 88.9815 290.792 87.5991 289.959 86.9486C289.125 86.2777 287.977 85.9423 286.513 85.9423C285.253 85.9423 284.196 86.2472 283.342 86.8571C282.488 87.467 281.827 88.2903 281.36 89.3271C281.36 89.571 281.36 89.815 281.36 90.0589V112.075H272.151V91.1872C272.151 89.073 271.724 87.6703 270.87 86.9791C270.036 86.2879 268.878 85.9423 267.394 85.9423C266.215 85.9423 265.198 86.1964 264.344 86.7046C263.49 87.2129 262.799 87.9142 262.271 88.8087V112.075ZM323.503 90.0894C323.503 88.6054 323.137 87.4263 322.405 86.5522C321.673 85.678 320.504 85.241 318.898 85.241C317.496 85.241 316.408 85.5764 315.635 86.2472C314.863 86.9181 314.477 87.8532 314.477 89.0526H305.268C305.268 87.1011 305.847 85.3324 307.006 83.7468C308.165 82.1408 309.801 80.8601 311.915 79.9046C314.029 78.9491 316.52 78.4714 319.386 78.4714C321.948 78.4714 324.235 78.9085 326.247 79.7826C328.26 80.6364 329.845 81.9273 331.004 83.6553C332.163 85.3833 332.742 87.5483 332.742 90.1504V103.933C332.742 105.885 332.854 107.43 333.078 108.568C333.322 109.707 333.657 110.703 334.084 111.557V112.075H324.814C324.448 111.303 324.153 110.337 323.93 109.178C323.076 110.154 321.978 110.988 320.636 111.679C319.315 112.35 317.679 112.685 315.727 112.685C313.633 112.685 311.732 112.268 310.025 111.435C308.337 110.581 306.996 109.412 306 107.928C305.003 106.424 304.505 104.706 304.505 102.775C304.505 99.3188 305.786 96.6455 308.348 94.7549C310.909 92.844 314.721 91.8885 319.783 91.8885H323.503V90.0894ZM317.77 105.702C319.193 105.702 320.392 105.397 321.368 104.787C322.364 104.157 323.076 103.466 323.503 102.714V97.1944H320.057C317.821 97.1944 316.205 97.6823 315.209 98.6581C314.212 99.6135 313.714 100.772 313.714 102.134C313.714 103.171 314.08 104.025 314.812 104.696C315.544 105.367 316.53 105.702 317.77 105.702ZM355.766 102.866C355.766 101.972 355.329 101.23 354.455 100.64C353.601 100.03 351.822 99.4407 349.119 98.8715C346.882 98.404 344.88 97.7534 343.111 96.9199C341.363 96.0661 339.97 94.9785 338.934 93.6571C337.917 92.3358 337.409 90.7196 337.409 88.8087C337.409 86.9588 337.938 85.2511 338.995 83.6858C340.052 82.1205 341.566 80.8601 343.538 79.9046C345.53 78.9491 347.909 78.4714 350.674 78.4714C355.004 78.4714 358.409 79.4777 360.889 81.4903C363.389 83.4825 364.64 86.0338 364.64 89.1441H355.431C355.431 87.9041 355.044 86.8978 354.272 86.1253C353.52 85.3324 352.31 84.936 350.643 84.936C349.281 84.936 348.204 85.2613 347.411 85.9118C346.618 86.5623 346.222 87.3755 346.222 88.3513C346.222 89.2864 346.659 90.0488 347.533 90.6383C348.427 91.2075 349.982 91.6954 352.198 92.102C354.536 92.5695 356.65 93.1896 358.541 93.9621C360.432 94.7143 361.936 95.7815 363.054 97.1639C364.172 98.5259 364.731 100.315 364.731 102.531C364.731 104.482 364.152 106.22 362.993 107.745C361.855 109.27 360.228 110.479 358.114 111.374C356.02 112.248 353.55 112.685 350.704 112.685C347.594 112.685 344.971 112.126 342.837 111.008C340.702 109.89 339.086 108.477 337.988 106.769C336.891 105.041 336.342 103.283 336.342 101.494H345.063C345.144 103.141 345.744 104.34 346.862 105.092C348 105.824 349.352 106.19 350.918 106.19C352.503 106.19 353.703 105.885 354.516 105.275C355.349 104.665 355.766 103.862 355.766 102.866ZM367.599 95.2733C367.599 92.0613 368.209 89.1949 369.428 86.6741C370.648 84.133 372.427 82.1306 374.765 80.6669C377.103 79.2033 379.938 78.4714 383.272 78.4714C386.647 78.4714 389.503 79.2033 391.841 80.6669C394.199 82.1306 395.978 84.133 397.177 86.6741C398.397 89.1949 399.007 92.0613 399.007 95.2733V95.9137C399.007 99.1053 398.397 101.972 397.177 104.513C395.978 107.034 394.209 109.026 391.872 110.49C389.534 111.953 386.688 112.685 383.333 112.685C379.979 112.685 377.123 111.953 374.765 110.49C372.427 109.026 370.648 107.034 369.428 104.513C368.209 101.972 367.599 99.1053 367.599 95.9137V95.2733ZM376.838 95.9137C376.838 97.6416 377.042 99.2171 377.448 100.64C377.855 102.063 378.536 103.191 379.491 104.025C380.447 104.858 381.727 105.275 383.333 105.275C385.712 105.275 387.379 104.371 388.334 102.561C389.31 100.732 389.798 98.5158 389.798 95.9137V95.2733C389.798 93.586 389.585 92.0308 389.158 90.6078C388.751 89.1848 388.07 88.0464 387.115 87.1925C386.179 86.3184 384.899 85.8813 383.272 85.8813C381.687 85.8813 380.426 86.3184 379.491 87.1925C378.556 88.0464 377.875 89.1848 377.448 90.6078C377.042 92.0308 376.838 93.586 376.838 95.2733V95.9137ZM412.242 112.075H403.033V65.2068H412.242V90.8213L413.798 88.8392L421.97 79.0813H433.039L421.238 92.7728L434.015 112.075H423.433L415.322 99.1155L412.242 102.195V112.075Z" fill="#29CC97"/>
<path d="M13.1147 89.2255C13.1147 85.7765 15.9108 82.9805 19.3598 82.9805H138.64C142.089 82.9805 144.885 85.7765 144.885 89.2255V138.641C144.885 142.09 142.089 144.886 138.64 144.886H19.3598C15.9107 144.886 13.1147 142.09 13.1147 138.641V89.2255Z" fill="#29CC97"/>
<path d="M98.3025 45.4666C98.3025 44.087 99.4209 42.9686 100.8 42.9686H103.525C104.905 42.9686 106.023 44.087 106.023 45.4666V62.2483C106.023 62.5839 106.124 62.9152 106.305 63.1976C106.945 64.195 108.383 64.413 109.221 63.5749L114.044 58.7523C115.019 57.7767 116.601 57.7767 117.577 58.7523L119.503 60.6784C120.478 61.654 120.478 63.2357 119.503 64.2112L109.966 73.747C109.836 73.8768 109.765 74.0566 109.796 74.2376C109.857 74.5924 110.176 74.8818 110.536 74.8818H133.796C134.854 74.8818 135.81 74.2187 136.089 73.1983C136.622 71.2512 136.907 69.2298 136.907 67.1609C136.907 60.9641 134.385 55.0533 130.023 50.7336C129.442 50.1579 129.14 49.3568 129.173 48.5393C129.182 48.3115 129.186 48.0848 129.186 47.8585C129.186 41.832 126.31 36.1741 121.531 32.5488C121.49 32.5174 121.465 32.4685 121.465 32.4166C121.465 21.7742 112.805 13.1143 102.163 13.1143C91.5205 13.1143 82.8606 21.7742 82.8606 32.4166C82.8606 32.4685 82.8361 32.5174 82.7947 32.5488C78.6809 35.6695 75.9772 40.2955 75.3042 45.3675C75.1227 46.7351 76.259 47.8509 77.6364 47.9295C83.7407 48.2777 89.38 49.8908 94.198 52.399C95.9916 53.3327 98.3025 52.106 98.3025 50.0839V45.4666Z" fill="#29CC97"/>
<path d="M48.1162 74.8824H102.163C102.163 64.24 90.0385 55.5801 75.1395 55.5801C60.2405 55.5801 48.1162 64.24 48.1162 74.8824Z" fill="#29CC97"/>
<path d="M21.0928 55.5794C21.0928 56.213 21.1309 56.8309 21.1965 57.4314C21.3253 58.6093 22.368 59.4399 23.5529 59.4399H30.1762C31.5558 59.4399 32.6742 60.5583 32.6742 61.9379V64.6628C32.6742 66.0425 31.5558 67.1609 30.1762 67.1609H26.2802C24.6999 67.1609 23.5167 68.6099 23.8326 70.1583L24.3886 72.8832C24.6259 74.0463 25.6491 74.8818 26.8362 74.8818H37.8971C39.2767 74.8818 40.3796 73.7587 40.5435 72.3889C41.5816 63.7152 47.9814 56.2842 57.0821 51.9471C58.1941 51.4172 58.8441 50.1897 58.4547 49.021C58.002 47.6622 57.4117 46.3432 56.6061 45.0989C55.183 42.9021 53.3423 41.1139 51.2414 39.7254C49.77 38.7529 49.3622 36.6294 50.6094 35.3822L56.8001 29.1915C57.7757 28.216 57.7757 26.6343 56.8001 25.6588L54.8739 23.7326C53.8984 22.757 52.3167 22.757 51.3412 23.7326L48.52 26.5537C46.9463 28.1274 44.2556 27.0129 44.2556 24.7874V15.6123C44.2556 14.2327 43.1372 13.1143 41.7576 13.1143H39.0327C37.6531 13.1143 36.5347 14.2327 36.5347 15.6123V24.7874C36.5347 27.0129 33.8439 28.1274 32.2703 26.5537L29.4491 23.7326C28.4736 22.757 26.8919 22.757 25.9163 23.7326L23.9902 25.6587C23.0147 26.6343 23.0147 28.216 23.9903 29.1915L30.1106 35.3112C31.3548 36.5553 30.9542 38.679 29.5031 39.6742C24.4311 43.1527 21.0928 48.9784 21.0928 55.5794Z" fill="#29CC97"/>
<path d="M189.304 143.803C189.304 145.137 188.874 146.155 188.016 146.857C187.163 147.553 186.028 147.901 184.61 147.901H179.633V133.694H184.298C185.748 133.694 186.884 133.996 187.703 134.601C188.523 135.2 188.933 136.159 188.933 137.48C188.933 138.137 188.741 138.722 188.357 139.236C187.98 139.75 187.466 140.147 186.815 140.427C187.615 140.635 188.23 141.051 188.66 141.676C189.089 142.294 189.304 143.003 189.304 143.803ZM184.298 135.226H181.526V139.754H184.347C185.153 139.754 185.804 139.552 186.298 139.149C186.793 138.745 187.04 138.182 187.04 137.46C187.04 136.68 186.812 136.114 186.357 135.763C185.908 135.405 185.221 135.226 184.298 135.226ZM187.411 143.823C187.411 143.029 187.196 142.401 186.766 141.939C186.337 141.477 185.648 141.246 184.698 141.246H181.526V146.379H184.61C185.501 146.379 186.191 146.148 186.679 145.686C187.167 145.224 187.411 144.603 187.411 143.823ZM197.705 137.343H199.647L195.412 149.531C195.288 149.876 195.103 150.253 194.856 150.663C194.609 151.079 194.277 151.434 193.86 151.726C193.444 152.019 192.917 152.166 192.28 152.166C192.137 152.166 191.954 152.146 191.733 152.107C191.512 152.068 191.353 152.035 191.255 152.009V150.556C191.307 150.562 191.388 150.572 191.499 150.585C191.616 150.598 191.697 150.604 191.743 150.604C192.355 150.604 192.833 150.477 193.177 150.224C193.522 149.97 193.802 149.518 194.017 148.867L194.407 147.794L190.65 137.343H192.641L195.256 145.228L197.705 137.343ZM211.756 142.33H208.4V147.901H206.507V133.694H211.756C212.83 133.694 213.737 133.879 214.479 134.25C215.221 134.621 215.783 135.132 216.167 135.782C216.551 136.433 216.743 137.181 216.743 138.026C216.743 139.399 216.313 140.459 215.455 141.207C214.603 141.956 213.37 142.33 211.756 142.33ZM211.756 135.226H208.4V140.807H211.756C212.856 140.807 213.646 140.55 214.128 140.036C214.609 139.516 214.85 138.853 214.85 138.046C214.85 137.558 214.742 137.099 214.528 136.67C214.32 136.241 213.988 135.893 213.532 135.626C213.084 135.359 212.492 135.226 211.756 135.226ZM224.393 147.901H222.519V135.226H217.972V133.694H228.95V135.226H224.393V147.901ZM244.075 147.901H235.449V133.694H237.342V146.379H244.075V147.901ZM252.164 140.661C252.164 140.03 251.975 139.529 251.598 139.158C251.227 138.781 250.678 138.592 249.949 138.592C249.272 138.592 248.726 138.761 248.31 139.1C247.893 139.438 247.685 139.828 247.685 140.271H245.86C245.86 139.763 246.033 139.272 246.378 138.797C246.722 138.316 247.207 137.922 247.831 137.617C248.462 137.304 249.204 137.148 250.056 137.148C251.208 137.148 252.151 137.441 252.886 138.026C253.621 138.612 253.989 139.497 253.989 140.681V145.599C253.989 145.95 254.018 146.324 254.077 146.721C254.142 147.117 254.236 147.459 254.359 147.745V147.901H252.457C252.398 147.771 252.346 147.609 252.301 147.413C252.262 147.218 252.229 147.013 252.203 146.799C251.865 147.157 251.442 147.462 250.934 147.716C250.434 147.97 249.858 148.097 249.207 148.097C248.492 148.097 247.864 147.96 247.324 147.687C246.791 147.407 246.374 147.03 246.075 146.555C245.782 146.08 245.636 145.553 245.636 144.974C245.636 143.836 246.065 142.974 246.924 142.388C247.783 141.796 248.937 141.5 250.388 141.5H252.164V140.661ZM249.471 146.535C250.121 146.535 250.684 146.373 251.159 146.047C251.634 145.716 251.969 145.348 252.164 144.945V142.769H250.681C249.653 142.769 248.859 142.931 248.3 143.257C247.74 143.582 247.461 144.07 247.461 144.72C247.461 145.228 247.63 145.657 247.968 146.008C248.313 146.36 248.814 146.535 249.471 146.535ZM258.653 151.961H256.828V137.343H258.487L258.585 138.495C258.942 138.059 259.375 137.727 259.882 137.499C260.39 137.265 260.975 137.148 261.639 137.148C262.524 137.148 263.272 137.373 263.883 137.821C264.495 138.27 264.96 138.901 265.279 139.714C265.597 140.521 265.757 141.461 265.757 142.535V142.739C265.757 143.767 265.597 144.685 265.279 145.491C264.96 146.298 264.495 146.935 263.883 147.404C263.278 147.866 262.54 148.097 261.668 148.097C261.018 148.097 260.442 147.992 259.941 147.784C259.44 147.576 259.011 147.277 258.653 146.887V151.961ZM263.932 142.535C263.932 141.832 263.831 141.188 263.63 140.602C263.434 140.01 263.125 139.539 262.703 139.188C262.286 138.836 261.749 138.661 261.092 138.661C260.487 138.661 259.987 138.8 259.59 139.08C259.199 139.353 258.887 139.698 258.653 140.115V145.198C258.887 145.615 259.199 145.96 259.59 146.233C259.987 146.499 260.494 146.633 261.112 146.633C261.762 146.633 262.296 146.454 262.712 146.096C263.129 145.738 263.434 145.267 263.63 144.681C263.831 144.089 263.932 143.442 263.932 142.739V142.535ZM268.069 134.533C268.069 134.247 268.157 134.003 268.333 133.801C268.515 133.6 268.782 133.499 269.133 133.499C269.484 133.499 269.751 133.6 269.933 133.801C270.122 134.003 270.216 134.247 270.216 134.533C270.216 134.813 270.122 135.053 269.933 135.255C269.751 135.45 269.484 135.548 269.133 135.548C268.782 135.548 268.515 135.45 268.333 135.255C268.157 135.053 268.069 134.813 268.069 134.533ZM270.031 147.901H268.206V137.343H270.031V147.901ZM280.179 147.901H278.286V133.694H280.179V147.901ZM288.854 147.901H286.98V135.226H282.433V133.694H293.411V135.226H288.854V147.901ZM305.188 143.803C305.188 145.137 304.759 146.155 303.9 146.857C303.048 147.553 301.913 147.901 300.495 147.901H295.518V133.694H300.183C301.633 133.694 302.768 133.996 303.588 134.601C304.408 135.2 304.818 136.159 304.818 137.48C304.818 138.137 304.626 138.722 304.242 139.236C303.865 139.75 303.351 140.147 302.7 140.427C303.5 140.635 304.115 141.051 304.544 141.676C304.974 142.294 305.188 143.003 305.188 143.803ZM300.183 135.226H297.411V139.754H300.231C301.038 139.754 301.689 139.552 302.183 139.149C302.677 138.745 302.925 138.182 302.925 137.46C302.925 136.68 302.697 136.114 302.242 135.763C301.793 135.405 301.106 135.226 300.183 135.226ZM303.295 143.823C303.295 143.029 303.081 142.401 302.651 141.939C302.222 141.477 301.532 141.246 300.583 141.246H297.411V146.379H300.495C301.386 146.379 302.076 146.148 302.564 145.686C303.051 145.224 303.295 144.603 303.295 143.823Z" fill="#929598"/>
</svg>
