<svg width="339" height="158" viewBox="0 0 339 158" fill="none" xmlns="http://www.w3.org/2000/svg">
<path d="M217.232 38.2413C217.049 41.2703 216.226 43.9537 214.762 46.2915C213.298 48.609 211.255 50.4285 208.633 51.7499C206.031 53.0712 202.9 53.7319 199.241 53.7319C195.399 53.7319 192.095 52.868 189.33 51.14C186.586 49.3917 184.472 46.9217 182.988 43.7301C181.504 40.5181 180.762 36.7064 180.762 32.295V29.5811C180.762 25.1697 181.524 21.3581 183.049 18.1461C184.594 14.9341 186.749 12.454 189.513 10.7057C192.298 8.95739 195.561 8.08324 199.302 8.08324C203.042 8.08324 206.193 8.77442 208.755 10.1568C211.336 11.5188 213.329 13.3891 214.731 15.7676C216.154 18.1461 217.008 20.86 217.293 23.9093H207.718C207.535 21.3072 206.823 19.3353 205.583 17.9936C204.364 16.6316 202.27 15.9506 199.302 15.9506C196.334 15.9506 194.118 17.0382 192.654 19.2134C191.211 21.3886 190.489 24.8241 190.489 29.5201V32.295C190.489 36.8894 191.15 40.3047 192.471 42.5408C193.813 44.777 196.069 45.8951 199.241 45.8951C202.026 45.8951 204.079 45.2649 205.4 44.0045C206.722 42.7238 207.484 40.8027 207.687 38.2413H217.232ZM221.746 53.1221V8.7236H235.56C239.564 8.7236 243.092 9.61808 246.141 11.407C249.211 13.196 251.609 15.6863 253.337 18.8779C255.065 22.0696 255.929 25.7694 255.929 29.9775V31.8681C255.929 36.0966 255.065 39.8066 253.337 42.9982C251.63 46.1899 249.241 48.6802 246.171 50.4691C243.102 52.2378 239.544 53.1221 235.499 53.1221H221.746ZM235.56 16.4689H231.352V45.4072H235.499C239.016 45.4072 241.679 44.2485 243.488 41.931C245.318 39.6135 246.232 36.2592 246.232 31.8681V29.9166C246.232 25.5052 245.318 22.1611 243.488 19.8842C241.679 17.6074 239.036 16.4689 235.56 16.4689ZM296.212 38.2413C296.029 41.2703 295.206 43.9537 293.742 46.2915C292.279 48.609 290.236 50.4285 287.613 51.7499C285.011 53.0712 281.88 53.7319 278.221 53.7319C274.379 53.7319 271.076 52.868 268.311 51.14C265.566 49.3917 263.452 46.9217 261.968 43.7301C260.484 40.5181 259.742 36.7064 259.742 32.295V29.5811C259.742 25.1697 260.505 21.3581 262.029 18.1461C263.574 14.9341 265.729 12.454 268.494 10.7057C271.279 8.95739 274.542 8.08324 278.282 8.08324C282.023 8.08324 285.174 8.77442 287.735 10.1568C290.317 11.5188 292.309 13.3891 293.712 15.7676C295.135 18.1461 295.989 20.86 296.273 23.9093H286.698C286.515 21.3072 285.804 19.3353 284.564 17.9936C283.344 16.6316 281.25 15.9506 278.282 15.9506C275.314 15.9506 273.098 17.0382 271.635 19.2134C270.191 21.3886 269.47 24.8241 269.47 29.5201V32.295C269.47 36.8894 270.13 40.3047 271.452 42.5408C272.793 44.777 275.05 45.8951 278.221 45.8951C281.006 45.8951 283.06 45.2649 284.381 44.0045C285.702 42.7238 286.465 40.8027 286.668 38.2413H296.212Z" fill="#25282B"/>
<path d="M215.402 98.963C215.402 103.293 214.01 106.566 211.225 108.782C208.44 110.977 204.445 112.075 199.241 112.075H182.073V67.6767H197.777C203.002 67.6767 207.088 68.6728 210.035 70.6651C212.983 72.6573 214.457 75.727 214.457 79.8741C214.457 81.8663 213.959 83.7163 212.963 85.4239C211.967 87.1112 210.371 88.3919 208.175 89.2661C210.757 89.9166 212.607 91.1669 213.725 93.0168C214.843 94.8667 215.402 96.8488 215.402 98.963ZM197.777 75.4221H191.678V86.1863H197.777C202.514 86.1863 204.882 84.4278 204.882 80.9109C204.882 78.9593 204.313 77.5566 203.174 76.7028C202.036 75.849 200.237 75.4221 197.777 75.4221ZM205.858 98.8715C205.858 97.0216 205.38 95.5579 204.425 94.4805C203.469 93.403 201.873 92.8643 199.637 92.8643H191.678V104.36H199.241C201.538 104.36 203.215 103.832 204.272 102.775C205.329 101.718 205.858 100.417 205.858 98.8715ZM239.676 79.0813H248.885V112.075H240.256L240.012 108.69C238.995 109.951 237.735 110.937 236.231 111.648C234.746 112.339 233.019 112.685 231.047 112.685C227.794 112.685 225.151 111.73 223.118 109.819C221.106 107.908 220.099 104.777 220.099 100.427V79.0813H229.308V100.488C229.308 102.175 229.725 103.385 230.559 104.116C231.392 104.848 232.47 105.214 233.791 105.214C235.316 105.214 236.546 104.95 237.481 104.421C238.436 103.893 239.168 103.181 239.676 102.287V79.0813ZM263.828 112.075H254.589V65.2373H263.828V112.075ZM278.863 112.075H269.654V65.2068H278.863V90.8213L280.418 88.8392L288.59 79.0813H299.659L287.858 92.7728L300.635 112.075H290.054L281.943 99.1155L278.863 102.195V112.075ZM320.396 79.0813H330.245L317.072 117.015C316.686 118.113 316.107 119.312 315.334 120.613C314.582 121.935 313.494 123.063 312.071 123.998C310.669 124.933 308.788 125.401 306.43 125.401C305.576 125.401 304.885 125.35 304.357 125.248C303.828 125.167 303.188 125.025 302.435 124.821V117.869C302.862 117.889 303.31 117.899 303.777 117.899C305.485 117.899 306.735 117.625 307.528 117.076C308.341 116.548 308.951 115.714 309.357 114.576L310.272 112.197L298.746 79.0813H308.656L314.511 98.963L320.396 79.0813Z" fill="#FF6332"/>
<path fill-rule="evenodd" clip-rule="evenodd" d="M76.603 15.5772C78.3052 14.8206 80.2482 14.8206 81.9504 15.5772L141.2 41.9105C143.578 42.9671 145.11 45.3248 145.11 47.9264V133.51C145.11 137.146 142.163 140.093 138.527 140.093C134.891 140.093 131.943 137.146 131.943 133.51V52.2048L79.2767 28.7974L26.61 52.2048V133.51C26.61 137.146 23.6626 140.093 20.0267 140.093C16.3908 140.093 13.4434 137.146 13.4434 133.51V47.9264C13.4434 45.3248 14.9755 42.9671 17.3529 41.9105L76.603 15.5772ZM92.4433 74.2596V74.2592C92.4433 70.7672 91.0561 67.4182 88.5869 64.949C86.1177 62.4797 82.7687 61.0925 79.2767 61.0925H66.11C62.618 61.0925 59.269 62.4797 56.7998 64.949C54.3305 67.4182 52.9433 70.7672 52.9433 74.2592V87.4263H46.3605C42.7246 87.4263 39.7772 90.3737 39.7772 94.0096V133.51C39.7772 137.145 42.7246 140.093 46.3605 140.093H112.194C115.83 140.093 118.777 137.145 118.777 133.51V80.8429C118.777 77.2071 115.83 74.2596 112.194 74.2596H92.4433ZM92.4433 93.928V87.4263H105.611V126.926H92.4433V94.0913C92.4437 94.0641 92.4438 94.0369 92.4438 94.0096C92.4438 93.9824 92.4437 93.9551 92.4433 93.928ZM79.2767 87.4263V74.2592H66.11V87.4263H79.2767ZM79.2767 100.593V126.926H52.9438V100.593H79.2767Z" fill="#FF6332"/>
<path d="M189.58 143.803C189.58 145.137 189.151 146.155 188.292 146.857C187.44 147.553 186.305 147.901 184.887 147.901H179.91V133.694H184.575C186.025 133.694 187.16 133.996 187.98 134.601C188.8 135.2 189.21 136.159 189.21 137.48C189.21 138.137 189.018 138.722 188.634 139.236C188.257 139.75 187.743 140.147 187.092 140.427C187.892 140.635 188.507 141.051 188.936 141.676C189.366 142.294 189.58 143.003 189.58 143.803ZM184.575 135.226H181.803V139.754H184.623C185.43 139.754 186.081 139.552 186.575 139.149C187.069 138.745 187.317 138.182 187.317 137.46C187.317 136.68 187.089 136.114 186.634 135.763C186.185 135.405 185.498 135.226 184.575 135.226ZM187.687 143.823C187.687 143.029 187.473 142.401 187.043 141.939C186.614 141.477 185.924 141.246 184.975 141.246H181.803V146.379H184.887C185.778 146.379 186.468 146.148 186.956 145.686C187.443 145.224 187.687 144.603 187.687 143.823ZM197.982 137.343H199.924L195.689 149.531C195.565 149.876 195.38 150.253 195.133 150.663C194.885 151.079 194.554 151.434 194.137 151.726C193.721 152.019 193.194 152.166 192.557 152.166C192.413 152.166 192.231 152.146 192.01 152.107C191.789 152.068 191.63 152.035 191.532 152.009V150.556C191.584 150.562 191.665 150.572 191.776 150.585C191.893 150.598 191.974 150.604 192.02 150.604C192.631 150.604 193.11 150.477 193.454 150.224C193.799 149.97 194.079 149.518 194.293 148.867L194.684 147.794L190.927 137.343H192.918L195.533 145.228L197.982 137.343ZM212.033 142.33H208.677V147.901H206.784V133.694H212.033C213.107 133.694 214.014 133.879 214.756 134.25C215.497 134.621 216.06 135.132 216.444 135.782C216.828 136.433 217.02 137.181 217.02 138.026C217.02 139.399 216.59 140.459 215.732 141.207C214.879 141.956 213.647 142.33 212.033 142.33ZM212.033 135.226H208.677V140.807H212.033C213.133 140.807 213.923 140.55 214.405 140.036C214.886 139.516 215.127 138.853 215.127 138.046C215.127 137.558 215.019 137.099 214.805 136.67C214.596 136.241 214.265 135.893 213.809 135.626C213.36 135.359 212.768 135.226 212.033 135.226ZM224.67 147.901H222.796V135.226H218.249V133.694H229.227V135.226H224.67V147.901ZM244.352 147.901H235.726V133.694H237.619V146.379H244.352V147.901ZM252.441 140.661C252.441 140.03 252.252 139.529 251.875 139.158C251.504 138.781 250.954 138.592 250.226 138.592C249.549 138.592 249.003 138.761 248.586 139.1C248.17 139.438 247.962 139.828 247.962 140.271H246.137C246.137 139.763 246.31 139.272 246.654 138.797C246.999 138.316 247.484 137.922 248.108 137.617C248.739 137.304 249.481 137.148 250.333 137.148C251.485 137.148 252.428 137.441 253.163 138.026C253.898 138.612 254.266 139.497 254.266 140.681V145.599C254.266 145.95 254.295 146.324 254.353 146.721C254.418 147.117 254.513 147.459 254.636 147.745V147.901H252.734C252.675 147.771 252.623 147.609 252.577 147.413C252.538 147.218 252.506 147.013 252.48 146.799C252.142 147.157 251.719 147.462 251.211 147.716C250.71 147.97 250.135 148.097 249.484 148.097C248.769 148.097 248.141 147.96 247.601 147.687C247.067 147.407 246.651 147.03 246.352 146.555C246.059 146.08 245.913 145.553 245.913 144.974C245.913 143.836 246.342 142.974 247.201 142.388C248.06 141.796 249.214 141.5 250.665 141.5H252.441V140.661ZM249.748 146.535C250.398 146.535 250.961 146.373 251.436 146.047C251.911 145.716 252.246 145.348 252.441 144.945V142.769H250.958C249.93 142.769 249.136 142.931 248.577 143.257C248.017 143.582 247.738 144.07 247.738 144.72C247.738 145.228 247.907 145.657 248.245 146.008C248.59 146.36 249.091 146.535 249.748 146.535ZM258.93 151.961H257.105V137.343H258.764L258.862 138.495C259.219 138.059 259.652 137.727 260.159 137.499C260.667 137.265 261.252 137.148 261.916 137.148C262.8 137.148 263.549 137.373 264.16 137.821C264.772 138.27 265.237 138.901 265.555 139.714C265.874 140.521 266.034 141.461 266.034 142.535V142.739C266.034 143.767 265.874 144.685 265.555 145.491C265.237 146.298 264.772 146.935 264.16 147.404C263.555 147.866 262.817 148.097 261.945 148.097C261.294 148.097 260.719 147.992 260.218 147.784C259.717 147.576 259.288 147.277 258.93 146.887V151.961ZM264.209 142.535C264.209 141.832 264.108 141.188 263.906 140.602C263.711 140.01 263.402 139.539 262.979 139.188C262.563 138.836 262.026 138.661 261.369 138.661C260.764 138.661 260.263 138.8 259.867 139.08C259.476 139.353 259.164 139.698 258.93 140.115V145.198C259.164 145.615 259.476 145.96 259.867 146.233C260.263 146.499 260.771 146.633 261.389 146.633C262.039 146.633 262.573 146.454 262.989 146.096C263.405 145.738 263.711 145.267 263.906 144.681C264.108 144.089 264.209 143.442 264.209 142.739V142.535ZM268.346 134.533C268.346 134.247 268.434 134.003 268.61 133.801C268.792 133.6 269.059 133.499 269.41 133.499C269.761 133.499 270.028 133.6 270.21 133.801C270.399 134.003 270.493 134.247 270.493 134.533C270.493 134.813 270.399 135.053 270.21 135.255C270.028 135.45 269.761 135.548 269.41 135.548C269.059 135.548 268.792 135.45 268.61 135.255C268.434 135.053 268.346 134.813 268.346 134.533ZM270.308 147.901H268.483V137.343H270.308V147.901ZM280.456 147.901H278.563V133.694H280.456V147.901ZM289.131 147.901H287.257V135.226H282.71V133.694H293.687V135.226H289.131V147.901ZM305.465 143.803C305.465 145.137 305.036 146.155 304.177 146.857C303.325 147.553 302.19 147.901 300.772 147.901H295.795V133.694H300.459C301.91 133.694 303.045 133.996 303.865 134.601C304.685 135.2 305.094 136.159 305.094 137.48C305.094 138.137 304.903 138.722 304.519 139.236C304.141 139.75 303.628 140.147 302.977 140.427C303.777 140.635 304.392 141.051 304.821 141.676C305.251 142.294 305.465 143.003 305.465 143.803ZM300.459 135.226H297.688V139.754H300.508C301.315 139.754 301.965 139.552 302.46 139.149C302.954 138.745 303.201 138.182 303.201 137.46C303.201 136.68 302.974 136.114 302.518 135.763C302.07 135.405 301.383 135.226 300.459 135.226ZM303.572 143.823C303.572 143.029 303.358 142.401 302.928 141.939C302.499 141.477 301.809 141.246 300.86 141.246H297.688V146.379H300.772C301.663 146.379 302.353 146.148 302.84 145.686C303.328 145.224 303.572 144.603 303.572 143.823Z" fill="#929598"/>
</svg>
